<svg xmlns="http://www.w3.org/2000/svg" width="24" height="24" viewBox="0 0 24 24">
  <path fill="#1B1D22" fill-rule="evenodd" d="M12,22 C6.47695926,22 2,17.5230407 2,12 C2,6.47696296 6.47695926,2 12,2 C17.523037,2 22,6.47696296 22,12 C22,17.5230407 17.523037,22 12,22 Z M11.9962963,4.58888889 C7.90518519,4.58888889 4.58888889,7.90666667 4.58888889,11.9985185 C4.58888889,16.0911111 7.90518519,19.4081481 11.9962963,19.4081481 C16.0874074,19.4081481 19.4037037,16.0911111 19.4037037,11.9985185 C19.4037037,7.90666667 16.0874074,4.58888889 11.9962963,4.58888889 Z M10.1444444,11.6325926 L11.2585185,10.5185185 L10.1444444,9.40518519 L10.1444444,6.44222222 L13.8525926,6.44222222 L13.8525926,12.3644444 L12.7385185,13.4777778 L13.8525926,14.5911111 L13.8525926,17.5548148 L10.1444444,17.5548148 L10.1444444,11.6325926 Z"/>
</svg>
