<svg xmlns="http://www.w3.org/2000/svg" width="24" height="24" viewBox="0 0 24 24">
  <path fill="#1B1D22" fill-rule="evenodd" d="M12.0714286,2 C8.91517857,2 6.35714286,4.55803571 6.35714286,7.71428571 C6.35714286,10.8705357 8.91517857,13.4285714 12.0714286,13.4285714 C15.2276786,13.4285714 17.7857143,10.8705357 17.7857143,7.71428571 C17.7857143,4.55803571 15.2276786,2 12.0714286,2 Z M9.29017857,14.2946429 C8.4375,13.9330357 7.67410714,13.4196429 7.02232143,12.7633929 C6.95982143,12.7008929 6.89732143,12.6383929 6.83928571,12.5714286 L3.5,18.4285714 L7.78571429,18.4285714 L9.92857143,22 L12.0714286,17.2767857 L13.2098214,14.7678571 C12.8348214,14.8258929 12.4553571,14.8571429 12.0714286,14.8571429 C11.1071429,14.8571429 10.1741071,14.6696429 9.29017857,14.2946429 Z M17.3080357,12.5758929 C17.25,12.6383929 17.1875,12.7053571 17.125,12.7678571 C16.4732143,13.4196429 15.7098214,13.9375 14.8616071,14.2946429 L13.7678571,16.6964286 L12.7901786,18.8571429 L14.2142857,22 L16.3571429,18.4285714 L20.6428571,18.4285714 L17.3080357,12.5758929 Z"/>
</svg>
