<svg xmlns="http://www.w3.org/2000/svg" width="24" height="24" viewBox="0 0 24 24">
  <path fill="#1B1D22" fill-rule="evenodd" d="M10.9797138,20.839108 C7.74647003,20.8039443 4.81309569,19.8650317 2.20360936,17.9430354 C2.15498064,17.9072349 2.10425929,17.8724805 2.06263599,17.8294009 C1.99945044,17.7640774 1.9792074,17.6833786 2.0245154,17.6002685 C2.06727596,17.5218889 2.14624651,17.5115175 2.22317006,17.5268474 C2.28885753,17.5399029 2.35327135,17.5652413 2.41454632,17.5932171 C4.57823084,18.5815325 6.84868042,19.1441065 9.21989044,19.315604 C12.9299588,19.5839942 16.4281355,18.8387781 19.7288452,17.1369986 C19.762458,17.1196671 19.7944829,17.0990597 19.8288764,17.0835476 C20.0037392,17.0048503 20.1786954,16.9931139 20.2950126,17.1684324 C20.4102356,17.3421129 20.3113453,17.4819945 20.1761,17.6015422 C19.5257337,18.1763077 18.8098564,18.6575003 18.0428526,19.0590402 C15.9517246,20.1537104 13.7320366,20.7674158 11.3645134,20.8158626 C11.2361401,20.8184555 11.1079937,20.8311017 10.9797138,20.839108 L10.9797138,20.839108 Z M21.655812,15.54177 C21.8441386,15.5840762 21.9658734,15.6852003 21.9826998,15.8921341 C22.079642,17.0849714 21.7719024,18.1514837 20.990474,19.068607 C20.9199191,19.1513988 20.8247583,19.2594376 20.7032037,19.1788749 C20.5938519,19.1064091 20.6603103,18.9870435 20.6890594,18.88833 C20.8476829,18.3442251 21.0000281,17.7993008 21.0880033,17.2373634 C21.2084637,16.4675821 21.0003484,16.2449087 20.209506,16.3157365 C19.6589374,16.3650022 19.1163817,16.462396 18.575594,16.57371 C18.4727873,16.5948632 18.333679,16.6731968 18.2742728,16.5269009 C18.2185427,16.389612 18.345188,16.3119609 18.4398083,16.2389494 C18.9627621,15.8353625 19.5679132,15.6360707 20.2106402,15.5331272 C20.4499666,15.4947794 20.6910142,15.4718522 20.9340234,15.4794034 C21.1769859,15.4724894 21.418127,15.4884104 21.655812,15.54177 Z M14.634746,3.62200359 C16.0279706,4.22674773 16.719549,5.35057598 16.8363667,6.84988321 C16.9243018,7.97803483 16.8493768,9.10759421 16.8785862,10.0290382 C16.8785862,11.1231167 16.888594,12.0103073 16.8755371,12.8971311 C16.8643885,13.652359 17.0806502,14.325337 17.5306405,14.9278514 C17.6573725,15.0975288 17.7896088,15.2642953 17.9017427,15.4434348 C18.082797,15.7326599 18.0410779,15.9374554 17.7857458,16.1578089 C17.1838705,16.6770772 16.5825357,17.1969819 15.9837962,17.719889 C15.5990434,18.0558772 15.3800062,18.0547404 14.996621,17.728896 C14.5237529,17.3271286 14.1428163,16.849893 13.8199316,16.3250298 C13.7273129,16.1745039 13.6729506,16.1711833 13.5470392,16.2996467 C12.8898409,16.9703054 12.168466,17.5563524 11.2456075,17.8190569 C10.2334996,18.1071445 9.20524571,18.1684195 8.1777191,17.9065343 C6.91469048,17.5846017 6.06348247,16.7956695 5.66958515,15.5537933 C5.29142674,14.3615011 5.3218144,13.1652065 5.81001247,12.0071716 C6.35298051,10.7191688 7.36777054,9.93878797 8.65763872,9.48584201 C9.64072474,9.14061992 10.6676576,9.0097447 11.6962316,8.89360762 C12.147176,8.84270799 12.5990278,8.79898729 13.0508329,8.75609389 C13.1202469,8.74949542 13.1660559,8.74035497 13.163554,8.65642296 C13.1477283,8.12773804 13.2104105,7.59519011 13.0882687,7.07173593 C12.9170487,6.33798469 12.4193413,5.95345867 11.7052854,5.86011266 C10.959338,5.76262343 10.2751253,5.92707146 9.73557191,6.49833619 C9.48969382,6.7586722 9.36132055,7.07724021 9.28125822,7.42146153 C9.20010838,7.7705066 9.00636421,7.91757443 8.66782799,7.88136624 C7.89313421,7.79852841 7.11889479,7.71159407 6.34529253,7.61925551 C5.95166808,7.57225893 5.80164262,7.34562916 5.88729997,6.95182257 C6.24389559,5.31186584 7.19804774,4.16001578 8.76326829,3.56605337 C10.7186973,2.82397565 12.6950559,2.7800281 14.634746,3.62200359 Z M13.0711167,10.8579705 L13.0152986,10.8581103 C12.5712729,10.897461 12.124058,10.8950925 11.6833083,10.9787042 C11.0831143,11.0925662 10.49948,11.256694 10.0369332,11.6754733 C9.29085236,12.3508658 9.15156392,13.2158993 9.37018745,14.148125 C9.61756004,15.20272 10.5588395,15.6679455 11.5572101,15.251121 C12.1707811,14.9949216 12.5537125,14.5059049 12.8236027,13.9184929 C13.1351185,13.2406452 13.1756501,12.5179492 13.1632804,11.8986004 C13.1632804,11.5299067 13.1592773,11.2720659 13.1651419,11.0144587 C13.1676905,10.9025516 13.1435784,10.8467348 13.0152986,10.8581103 Z"/>
</svg>
