<svg xmlns="http://www.w3.org/2000/svg" width="24" height="24" viewBox="0 0 24 24">
  <path fill="#1B1D22" fill-rule="evenodd" d="M16.61,15.15 C16.15,15.15 15.77,14.78 15.77,14.32 C15.77,13.86 16.15,13.5 16.61,13.5 L16.61,13.5 C17.07,13.5 17.45,13.86 17.45,14.32 C17.45,14.78 17.07,15.15 16.61,15.15 M7.41,15.15 C6.95,15.15 6.57,14.78 6.57,14.32 C6.57,13.86 6.95,13.5 7.41,13.5 L7.41,13.5 C7.87,13.5 8.24,13.86 8.24,14.32 C8.24,14.78 7.87,15.15 7.41,15.15 M16.91,10.14 L18.58,7.26 C18.67,7.09 18.61,6.88 18.45,6.79 C18.28,6.69 18.07,6.75 18,6.92 L16.29,9.83 C14.95,9.22 13.5,8.9 12,8.91 C10.47,8.91 9,9.24 7.73,9.82 L6.04,6.91 C5.95,6.74 5.74,6.68 5.57,6.78 C5.4,6.87 5.35,7.08 5.44,7.25 L7.1,10.13 C4.25,11.69 2.29,14.58 2,18 L22,18 C21.72,14.59 19.77,11.7 16.91,10.14 L16.91,10.14 Z"/>
</svg>
