<svg xmlns="http://www.w3.org/2000/svg" width="24" height="24" viewBox="0 0 24 24">
  <path fill="#1B1D22" fill-rule="evenodd" d="M13.8086615,7.3854149 L13.8086615,9.16404459 L16.046452,9.16404459 L16.046452,9.80159587 L13.8086615,9.80159587 L13.8086615,15.052918 C13.8086615,15.5899555 13.8954365,16.0007841 14.0696305,16.286055 C14.2434975,16.5713259 14.543282,16.7137986 14.9699654,16.7137986 C15.1718884,16.7137986 15.3457605,16.7027392 15.4915713,16.6802948 C15.6373873,16.6581755 15.760693,16.6298762 15.8618206,16.5963724 L15.9459837,17.2004178 C15.6768621,17.3233737 15.3177044,17.3851769 14.8691649,17.3851769 C14.4989207,17.3851769 14.1932582,17.3233737 13.9521927,17.2004178 C13.7108,17.0774619 13.5202957,16.907015 13.3800255,16.688752 C13.2397553,16.4704891 13.1415667,16.2079877 13.0854597,15.9002729 C13.0290255,15.5928828 13.0012965,15.2601215 13.0012965,14.9019877 L13.0012965,9.80159587 L11.6719935,9.80159587 L11.6719935,9.16404459 L13.0012965,9.16404459 L13.0012965,7.6872746 L13.8086615,7.3854149 Z M6.97100289,9.11753151 C8.50549,9.11753151 9.10897427,10.2062444 9.10897427,10.2062444 C9.10897427,10.2062444 7.92842618,10.8080112 7.92842618,12.268517 C7.92842618,13.9160636 9.39897569,14.4836776 9.39897569,14.4836776 C9.39897569,14.4836776 8.37108763,17.3689129 6.9824216,17.3689129 C6.34468121,17.3689129 5.84884661,16.9401936 5.17685419,16.9401936 C4.49214222,16.9401936 3.81232334,17.3848516 3.36998441,17.3848516 C2.10201114,17.3851769 0.5,14.6479439 0.5,12.4480738 C0.5,10.2833334 1.85604944,9.14778035 3.12761137,9.14778035 C3.95455013,9.14778035 4.59620273,9.6233383 5.02581956,9.6233383 C5.39476186,9.6233383 6.07947484,9.11753151 6.97100289,9.11753151 Z M17.3421583,9.16371747 L19.1930621,14.1636016 C19.3499697,14.5552393 19.4902399,14.924432 19.6135507,15.2708553 C19.7368563,15.6176042 19.8546162,15.9588232 19.9668354,16.2941871 L20.0004322,16.2941871 C20.1123191,15.9698826 20.233018,15.6312658 20.3622018,15.2789875 C20.4910532,14.9267091 20.6342573,14.5549137 20.7911648,14.1632766 L22.6587112,9.16339545 L23.5,9.16339545 L20.2861912,17.2166818 L19.596259,17.2166818 L16.5008644,9.16371747 L17.3421583,9.16371747 Z M7.12464941,6.5 L7.12840557,6.5283922 C7.14635406,6.6862436 7.19804432,7.4762319 6.56030769,8.2399216 C5.79958874,9.1516854 4.93480827,9.0023784 4.93480827,9.0023784 C4.93480827,9.0023784 4.77235647,8.28546354 5.41009431,7.44721597 C6.12742932,6.50455419 7.12464941,6.5 7.12464941,6.5 Z"/>
</svg>
