<svg xmlns="http://www.w3.org/2000/svg" width="24" height="24" viewBox="0 0 24 24">
  <path fill="#1B1D22" fill-rule="evenodd" d="M16.1341884,2.4001136 C16.1341884,3.4003276 15.7687682,4.33424822 15.0403944,5.1986688 C14.1614071,6.22628948 13.0982264,6.82010321 11.945299,6.72640315 C11.9306123,6.60640307 11.9220923,6.48010965 11.9220923,6.34739623 C11.9220923,5.38718226 12.3401059,4.35955491 13.0824264,3.51933435 C13.4530333,3.09391406 13.9243736,2.74022716 14.4959673,2.45801364 C15.0663144,2.17999345 15.6058081,2.02629335 16.1132017,2 C16.1280151,2.13370009 16.1341884,2.26740018 16.1341884,2.4001136 L16.1341884,2.4001136 Z M19.993331,17.5860717 C19.6908708,18.2848162 19.3328572,18.9280066 18.9180503,19.519347 C18.3526366,20.3254956 17.8896896,20.8835033 17.5329094,21.1933708 C16.9798423,21.7019971 16.3872619,21.9624831 15.7527148,21.9772975 C15.2971745,21.9772975 14.7478075,21.8476718 14.1083204,21.5847167 C13.4667333,21.3229962 12.8771263,21.1933708 12.3380059,21.1933708 C11.7725922,21.1933708 11.1661851,21.3229962 10.5175647,21.5847167 C9.86795558,21.8476718 9.34463856,21.9847046 8.94452696,21.9982845 C8.33602656,22.0242096 7.72950215,21.7563164 7.12408842,21.1933708 C6.73768016,20.8563439 6.25436117,20.2785835 5.67536612,19.4600896 C5.05415037,18.5860417 4.54342536,17.5724924 4.1433139,16.4169716 C3.71480834,15.1688621 3.5,13.9602546 3.5,12.7901672 C3.5,11.4498396 3.78962086,10.2938255 4.36972658,9.32508488 C4.82563888,8.54696436 5.43216395,7.93315062 6.19127646,7.48255032 C6.95038963,7.03194335 7.77061151,6.8023232 8.65391877,6.78762986 C9.13723709,6.78762986 9.77104551,6.93713662 10.558678,7.23095015 C11.3440852,7.52575702 11.8483922,7.67525712 12.0694924,7.67525712 C12.2347992,7.67525712 12.7950262,7.50045033 13.7447535,7.15194343 C14.6428741,6.82874322 15.4008746,6.69491646 16.0218417,6.7476365 C17.7045095,6.88342992 18.9686703,7.5467437 19.8093842,8.74177116 C18.3044899,9.65359844 17.5600694,10.9307193 17.5748827,12.5690604 C17.5884627,13.8451946 18.0514097,14.9071419 18.9612636,15.7503252 C19.3735972,16.1416714 19.8340776,16.444131 20.3464046,16.6589398 C20.2352978,16.981152 20.1180177,17.2897849 19.993331,17.5860717 L19.993331,17.5860717 Z"/>
</svg>
