<svg xmlns="http://www.w3.org/2000/svg" width="24" height="24" viewBox="0 0 24 24">
  <path fill="#1B1D22" fill-rule="evenodd" d="M12.0146474,1 L15.3388304,1.01850195 L17.2984948,3.14160026 L17.6577409,3.01671212 C18.4136236,2.7523004 19.2542073,2.9474359 19.8163013,3.51780649 L19.8163013,3.51780649 L21.0991029,4.81448455 C21.204398,4.92052675 21.2337882,5.08033597 21.1731107,5.21690187 L21.1731107,5.21690187 L20.7013111,6.27459646 L21.3797157,8.11708192 L20.9310435,9.78071524 L18.9513353,17.3510948 C18.7224206,18.2225816 18.1954314,18.9863342 17.4619287,19.5096552 C17.4619287,19.5096552 15.3434558,21.0129383 12.6652991,22.7675395 C12.277069,23.0774868 11.7260147,23.0774868 11.3377845,22.7675395 C8.95411713,21.2195434 6.53807134,19.5158225 6.53807134,19.5158225 C5.80399173,18.9927593 5.27643522,18.2289753 5.04712285,17.3572622 L5.04712285,17.3572622 L3.05662182,9.78996621 L2.62028426,8.12941655 L3.29560529,6.28847292 L2.80376189,5.19069078 C2.75517992,5.08195007 2.77845877,4.95452901 2.86235139,4.86999039 L2.86235139,4.86999039 L4.16828041,3.54864307 C4.73278274,2.97251432 5.579807,2.77533621 6.34071725,3.04292321 L6.34071725,3.04292321 L6.68917056,3.16626952 L8.64729319,1.02621109 L11.9930618,1 L12.0146474,1 Z M12.1564956,14.4956278 L11.9205958,14.4956278 C11.7867583,14.5332613 11.6558649,14.5806715 11.5289713,14.6374761 L10.9353672,14.8841687 C10.7472641,14.962802 10.4450656,15.1031084 10.2646716,15.1925345 L9.17305682,15.7614693 C9.09217882,15.7877089 9.03539206,15.8605035 9.02962347,15.9453356 C9.02385489,16.0301677 9.07026441,16.1099797 9.14684573,16.1469265 L10.0950705,16.8160802 C10.261588,16.9332592 10.5236989,17.1398643 10.6778818,17.2786289 L10.9446182,17.5083614 C11.098801,17.6409587 11.3501191,17.8614402 11.5027602,17.9971211 L11.7556201,18.2206863 C11.916845,18.355 12.1509955,18.355 12.3122203,18.2206863 L12.5774149,17.989412 L13.1355569,17.5021941 L13.4038352,17.2678361 C13.558018,17.133697 13.8185871,16.9270919 13.9851046,16.8052874 L14.9333294,16.1268827 C15.010105,16.0900231 15.0563963,16.0098296 15.0499165,15.9249112 C15.0434368,15.8399927 14.9855139,15.7677514 14.9040346,15.7429674 L13.8139616,15.1894508 C13.6320258,15.0969411 13.3298274,14.9581765 13.1401824,14.881085 L12.5481202,14.6374761 C12.4212265,14.5806715 12.2903331,14.5332613 12.1564956,14.4956278 Z M11.7139908,4.36889601 C11.5150948,4.41515088 11.1943944,4.50457695 11.000124,4.56779193 L10.0025607,4.89157599 C9.82885426,4.95215034 9.64514127,4.97884368 9.46137882,4.97020926 L8.90786226,4.8653649 L7.64356262,4.62329777 C7.44312487,4.58475205 7.27814918,4.55391547 7.27660735,4.5554573 L7.25964723,4.5554573 C7.17176985,4.64560781 7.08987839,4.74140537 7.01449645,4.84223747 L6.18961802,5.87680462 C6.06318806,6.0309875 5.86429214,6.30543303 5.7501968,6.47349238 L5.13346527,7.37854591 C5.02695009,7.53462189 4.92964893,7.69679049 4.84205962,7.86422199 C4.78922506,8.05091985 4.76123101,8.2437677 4.75880086,8.43778232 L4.78963743,8.53645936 C4.80448181,8.59984632 4.82354005,8.66217192 4.8466851,8.72302065 C4.9746569,8.87720354 5.19359659,9.13314713 5.33390301,9.28270452 L7.49246339,11.5769458 C7.63840227,11.7473143 7.68032353,11.9834905 7.60193324,12.1936774 L7.24885443,13.0308904 C7.1685688,13.2526969 7.1626159,13.4946009 7.23189432,13.7200879 L7.30281844,13.9143584 C7.41870398,14.2298778 7.61734791,14.5084053 7.8779206,14.7207348 L8.21712294,14.9967222 C8.39624677,15.1259296 8.6292466,15.1538896 8.83385448,15.07073 L10.0395646,14.4956278 C10.2608839,14.3848322 10.467969,14.2476383 10.6562962,14.0870432 L11.621481,13.2159099 C11.6991553,13.1457866 11.745121,13.0471967 11.7488974,12.9426199 C11.7526738,12.8380432 11.7139389,12.7363946 11.6415248,12.6608515 L9.46292065,11.1930305 C9.29244364,11.0720582 9.23607033,10.8445984 9.33032337,10.6580158 L10.1752456,9.06993214 C10.2722882,8.87359133 10.2872652,8.64671799 10.2168749,8.43932415 C10.1119513,8.24344028 9.94255319,8.08983815 9.73736618,8.00452842 L7.08850423,7.0038815 C6.89731746,6.93141554 6.90811026,6.84969861 7.11008984,6.83736398 L8.66579514,6.6831811 C8.90974742,6.66766791 9.15463813,6.6895053 9.39199652,6.74793791 L10.7457222,7.12568598 C10.9444883,7.18559651 11.0683427,7.38323653 11.0355861,7.58823463 L10.5036551,10.4930402 C10.4680786,10.6539293 10.4592232,10.8195767 10.477444,10.9833417 C10.4990296,11.052724 10.6809654,11.1375246 10.8798613,11.1868631 L11.7047398,11.3626316 C11.9442867,11.4066597 12.1898524,11.4066597 12.4293993,11.3626316 L13.171019,11.1945723 C13.3699149,11.1498592 13.5503089,11.0558077 13.5734363,10.9864254 C13.5911796,10.8225766 13.581803,10.6569238 13.5456834,10.4961238 L13.0106688,7.59131829 C12.9779122,7.38632018 13.1017666,7.18868017 13.3005326,7.12876963 L14.6542583,6.74947974 C14.8916128,6.69102325 15.1365071,6.66918554 15.3804597,6.68472293 L16.936165,6.82965484 C17.1396864,6.84815679 17.1489374,6.9237064 16.9592925,6.99617235 L14.3119723,7.99990293 C14.1067853,8.08521266 13.9373872,8.2388148 13.8324636,8.43469866 C13.7622446,8.64211497 13.7772171,8.86892106 13.874093,9.06530666 L14.720557,10.6533904 C14.81481,10.839973 14.7584367,11.0674327 14.5879597,11.188405 L12.4108974,12.6593097 C12.3384833,12.7348528 12.2997484,12.8365013 12.3035248,12.9410781 C12.3073012,13.0456549 12.3532669,13.1442448 12.4309412,13.2143681 L13.3976678,14.0855014 C13.586078,14.2455567 13.7931596,14.3822306 14.0143994,14.4925442 L15.2201095,15.0661045 C15.4249779,15.1488219 15.6579965,15.1202771 15.8368411,14.9905549 L16.1760434,14.7130257 C16.4368966,14.5003247 16.6355707,14.2212222 16.7511456,13.9051074 L16.8220697,13.7108369 C16.8913481,13.4853499 16.8853952,13.243446 16.8051096,13.0216395 L16.4504889,12.1844264 C16.3720986,11.9742395 16.4140199,11.7380633 16.5599588,11.5676949 L18.7185192,9.27036989 C18.8588256,9.11618701 19.0762235,8.86949439 19.2041953,8.71068602 C19.2302879,8.65157122 19.2524359,8.59079289 19.2704939,8.52875022 L19.3013305,8.43007317 C19.3031539,8.29806795 19.2949069,8.16611589 19.2766612,8.03536499 C19.1848701,7.80181475 19.0669406,7.57940379 18.9251242,7.37237859 L18.3083927,6.46732506 C18.1942974,6.29772389 18.0000269,6.02944567 17.8689715,5.8706373 L17.0425512,4.83607015 C16.9671693,4.73523805 16.8852778,4.6394405 16.7974004,4.54928999 L16.7804403,4.54928999 C16.7804403,4.54928999 16.6139228,4.57858474 16.4134851,4.61713046 L15.1507272,4.86073941 L14.5972107,4.9671256 C14.4134482,4.97576002 14.2297352,4.94906668 14.0560288,4.88849233 L13.0584655,4.5662501 C12.8641951,4.50303512 12.5434947,4.41206722 12.3445987,4.36889601 C12.1349863,4.34661842 11.9236032,4.34661842 11.7139908,4.36889601 Z"/>
</svg>
