<svg xmlns="http://www.w3.org/2000/svg" width="24" height="24" viewBox="0 0 24 24">
  <path fill="#1B1D22" fill-rule="evenodd" d="M9.9507,16.4515 L15.9507,11.9515 L9.9507,7.4515 L9.9507,16.4515 Z M5.6177,4.2085 C7.0997,2.9945 8.9367,2.1985 10.9507,1.9995 L10.9507,4.0135 C9.4757,4.1975 8.1267,4.7815 7.0147,5.6545 L5.6177,4.2085 Z M10.9507,21.9025 C8.9377,21.7045 7.0997,20.9085 5.6177,19.6945 L7.0697,18.2915 C8.1667,19.1375 9.4907,19.7045 10.9337,19.8875 L10.9507,21.9025 Z M12.9517,19.8895 C16.8987,19.3975 19.9507,16.0325 19.9507,11.9515 C19.9507,7.8705 16.8987,4.5055 12.9507,4.0135 L12.9507,2.0015 C18.0067,2.5075 21.9507,6.7715 21.9507,11.9515 C21.9507,17.1315 18.0067,21.3945 12.9507,21.9015 L12.9517,19.8895 Z M4.2127,18.2885 C3.0017,16.8105 2.2057,14.9795 2.0027,12.9735 L4.0127,12.9515 C4.1947,14.4135 4.7707,15.7525 5.6317,16.8585 L4.2127,18.2885 Z M1.9997,10.9515 C2.1997,8.9395 2.9957,7.1015 4.2087,5.6195 L5.6317,7.0445 C4.7757,8.1445 4.2007,9.4755 4.0157,10.9275 L1.9997,10.9515 Z"/>
</svg>
