<svg xmlns="http://www.w3.org/2000/svg" width="24" height="24" viewBox="0 0 24 24">
  <g fill="none" fill-rule="evenodd">
    <polygon points="0 0 0 24 24 24 24 0"/>
    <path fill="#1B1D22" d="M18.4021411,14.8507134 C19.1468694,14.6327628 19.8583688,14.4887715 20.3951353,14.5983372 L20.3951353,14.5983372 L21.9991079,14.933 L22,17 C22,18.1045695 21.1045695,19 20,19 L4,19 C2.8954305,19 2,18.1045695 2,17 L1.99789352,15.8336923 C2.71617602,15.6336471 3.67281086,15.4523011 4.71945487,15.3101855 C4.75482889,15.981531 4.83106736,16.4058169 4.948,16.584 C5.076,16.792 5.292,16.896 5.596,16.896 C5.828,16.896 6.044,16.832 6.244,16.704 C6.372,16.624 6.436,16.504 6.436,16.344 C6.436,16.232 6.392,16.03 6.304,15.738 C6.2336,15.5044 6.19136,15.31304 6.17728,15.16392 L6.17599137,15.1438081 C6.92507076,15.0738034 7.68493002,15.0263792 8.40842115,15.0080611 C8.43542558,15.1881514 8.47651349,15.3584397 8.52955325,15.5205884 C8.76507075,16.2119895 9.19402875,16.6125629 9.81642725,16.7223086 C10.3442842,16.815384 10.9230651,16.5275149 11.55277,15.8587012 C11.6394139,15.7358808 11.8159558,15.5639246 12.0823959,15.3428325 L12.1585148,15.269566 C13.1059357,15.408262 14.0334289,15.5558092 14.9453989,15.7119226 L14.1631079,15.581 L14.2195638,15.6610246 C14.7521642,16.3990554 15.239259,16.8338411 15.6808481,16.9653818 L15.8001533,16.993738 C16.1389272,17.053473 16.5828706,16.9083583 17.1319835,16.5583941 C17.7274346,16.1759834 18.0626682,15.7720596 18.1376842,15.3466226 C18.1599294,15.2204643 18.1660132,15.080178 18.1559358,14.925764 Z M9.7443749,15.0104949 C10.0655645,15.021118 10.3708459,15.0396898 10.6547196,15.0669714 C10.4468629,15.3803212 10.217479,15.5135873 9.96431779,15.4689481 C9.83705033,15.4465074 9.76418626,15.3158941 9.74572559,15.0771081 Z M20,5 C21.1045695,5 22,5.8954305 22,7 L21.9991079,13.91 L21.0988305,13.7214408 C20.2932167,13.5556215 19.1363949,13.8603119 18.0135211,14.1800794 C17.9791435,14.0571475 17.936816,13.9272615 17.8879119,13.7916262 C17.854533,13.7045065 17.6215848,13.1597798 17.1890673,12.1574463 C18.2340474,11.8055592 18.8206491,11.104775 18.9488723,10.0550938 C19.0113665,9.56246155 18.8706381,9.00150209 18.5266872,8.37221536 C18.1567792,7.70585805 17.7032532,7.26033561 17.1661094,7.03564806 C16.9696045,6.95225846 16.7768105,6.89389344 16.5877274,6.86055299 C16.0283566,6.76192083 15.5635562,6.887111 15.1933262,7.23612352 C14.8550667,7.54203282 14.6359263,7.9786121 14.5359049,8.54586137 C14.4581105,8.98705524 14.5010431,9.45765995 14.6647027,9.9576755 C14.7374931,10.1898426 14.9421625,10.6645956 15.2787108,11.3819346 C14.722652,11.7712912 14.3276257,12.0996846 14.0936321,12.3671149 C13.7757729,12.7416087 13.5716948,13.1849056 13.4813978,13.6970056 C13.4412236,13.9248448 13.4694423,14.1834033 13.566054,14.4726811 C12.787488,14.3493187 11.9935506,14.2323797 11.1845341,14.1217127 L12.0585676,14.2440267 C11.9277679,14.1627283 11.7746108,14.1066052 11.5990962,14.0756572 C11.4178916,14.0437059 11.274809,14.0489394 11.1698486,14.0913577 L11.1307748,14.1145157 C10.7464454,14.0641691 10.3178011,14.0314184 9.85889873,14.0143258 L9.81816481,14.2246655 C9.93763476,13.5471177 10.1406325,12.8335269 10.427158,12.0838929 C10.7136836,11.3342589 10.9239133,10.97125 11.0578471,10.9948661 C11.1681456,11.0143147 11.2062576,11.1609734 11.1721831,11.4348421 L11.1531602,11.5600028 L11.0927306,11.9027159 C11.0584577,12.0510175 11.0343752,12.1645606 11.0204834,12.2433452 C10.964916,12.5584837 10.9688841,12.7663304 11.0323876,12.8668853 C11.1672733,13.0693844 11.3883461,13.197723 11.6956061,13.2519013 C12.0895292,13.3213605 12.3376815,13.2270185 12.4400631,12.9688751 C12.4845362,12.8548657 12.5206647,12.7190764 12.5484484,12.5615071 C12.6498589,11.9863794 12.6096951,11.4309671 12.4279569,10.8952701 C12.2063504,10.2631858 11.835558,9.9013005 11.3155795,9.80961426 C10.6537887,9.69292269 10.0418764,10.0074435 9.47984263,10.7531767 C8.97109303,11.4270713 8.62850495,12.2643009 8.4520784,13.2648655 C8.40634717,13.5242202 8.37644996,13.7727915 8.36238676,14.0105794 C7.65123598,14.0274823 6.90738172,14.0729101 6.17139108,14.140011 L6.172,11.532 C6.172,11.38 6.234,11.186 6.358,10.95 C6.482,10.714 6.544,10.54 6.544,10.428 C6.544,10.34 6.514,10.252 6.454,10.164 C6.394,10.076 6.256,9.998 6.04,9.93 C5.824,9.862 5.608,9.828 5.392,9.828 C5.176,9.828 5.028,9.868 4.948,9.948 C4.756,10.14 4.66,10.368 4.66,10.632 C4.66,10.712 4.672,10.842 4.696,11.022 C4.72,11.202 4.732,11.348 4.732,11.46 C4.732,11.756 4.726,12.226 4.714,12.87 C4.702,13.514 4.696,13.988 4.696,14.292 L4.69466355,14.3050687 C3.68913324,14.4387945 2.75332131,14.6089146 1.99987737,14.799902 L2,7 C2,5.8954305 2.8954305,5 4,5 L20,5 Z M15.7196789,13.1656059 C15.8925869,13.5210307 16.0694341,13.8771502 16.2502205,14.2339642 C16.3126325,14.3729271 16.3642974,14.4995907 16.4052154,14.613955 C16.1092432,14.6794565 15.8357473,14.7261702 15.5919648,14.7425695 C15.5555197,14.6781687 15.5169739,14.6096073 15.4779606,14.5364583 C15.3370424,14.2760316 15.2943669,13.988249 15.3499344,13.6731105 C15.4027234,13.373729 15.5259716,13.2045608 15.7196789,13.1656059 Z M16.2670553,8.52752728 L16.3293678,8.53309904 C16.4554232,8.55532601 16.590989,8.65030978 16.7360652,8.81805035 C16.8811414,8.98579092 16.9791799,9.15539176 17.0301808,9.32685285 C17.1219825,9.63548282 17.151213,9.88433935 17.1178726,10.0734224 C17.0720295,10.3334117 16.9084661,10.5239032 16.6271824,10.644897 C16.2446948,9.49704016 16.0673429,8.84432714 16.0951266,8.6867579 C16.1173535,8.56070251 16.1954339,8.50948289 16.3293678,8.53309904 Z M5.632,7.284 C5.304,7.284 5.076,7.332 4.948,7.428 C4.852,7.5 4.812,7.636 4.828,7.836 C4.844,8.092 4.844,8.252 4.828,8.316 C4.82,8.38 4.792,8.462 4.744,8.562 C4.696,8.662 4.672,8.74 4.672,8.796 C4.672,8.98 4.808,9.128 5.08,9.24 C5.304,9.328 5.524,9.372 5.74,9.372 C5.892,9.372 6.018,9.346 6.118,9.294 C6.218,9.242 6.268,9.132 6.268,8.964 C6.236,8.692 6.228,8.516 6.244,8.436 C6.26,8.356 6.296,8.208 6.352,7.992 C6.4,7.816 6.424,7.692 6.424,7.62 C6.424,7.564 6.412,7.524 6.388,7.5 C6.244,7.356 5.992,7.284 5.632,7.284 Z"/>
  </g>
</svg>
