<svg xmlns="http://www.w3.org/2000/svg" width="24" height="24" viewBox="0 0 24 24">
  <path fill="#1B1D22" fill-rule="evenodd" d="M21.4246875,8.67421875 C23.7892188,15.385 18.554375,22.4228125 11.3734375,21.9801563 C12.6,19.911875 15.130625,15.640625 15.9235938,14.2735938 C16.9760938,12.4592188 16.6376563,10.1192188 15.0839063,8.67421875 L15.0839063,8.67421875 Z M3.62171875,6.540625 C4.7178125,8.4509375 7.12953125,12.6523438 8.04234375,14.2278125 C9.238125,16.291875 11.4210937,16.9067188 13.2865625,16.3523438 L13.2865625,16.3523438 L10.0610937,21.8120313 C3.09140625,20.4434375 -0.21734375,12.4248438 3.62171875,6.540625 Z M11.9967188,8.67421875 C13.8292188,8.67421875 15.3201563,10.1660938 15.3201563,11.9996875 C15.3201563,13.8334375 13.8292188,15.3251563 11.9967188,15.3251563 C10.1640625,15.3251563 8.673125,13.8332813 8.673125,11.9996875 C8.673125,10.1660938 10.1640625,8.67421875 11.9967188,8.67421875 Z M20.9053125,7.46140625 L12.5918764,7.46132015 C11.507044,7.46394133 10.7257813,7.50352679 9.88953125,7.94375 C8.74265625,8.5475 7.8771875,9.6665625 7.57515625,10.9810938 L4.4146875,5.48390625 C9.0634375,0.07359375 17.6829688,1.1415625 20.9053125,7.46140625 Z"/>
</svg>
