<svg xmlns="http://www.w3.org/2000/svg" width="24" height="24" viewBox="0 0 24 24">
  <path fill="#1B1D22" fill-rule="evenodd" d="M16.3947368,2 L5.34210526,2 C4.32894737,2 3.5,2.81818182 3.5,3.81818182 L3.5,16.5454545 L5.34210526,16.5454545 L5.34210526,3.81818182 L16.3947368,3.81818182 L16.3947368,2 Z M15.4736842,5.63636364 L9.02631579,5.63636364 C8.01315789,5.63636364 7.19342105,6.45454545 7.19342105,7.45454545 L7.18421053,20.1818182 C7.18421053,21.1818182 8.00394737,22 9.01710526,22 L19.1578947,22 C20.1710526,22 21,21.1818182 21,20.1818182 L21,11.0909091 L15.4736842,5.63636364 Z M9.02631579,20.1818182 L9.02631579,7.45454545 L14.5526316,7.45454545 L14.5526316,12 L19.1578947,12 L19.1578947,20.1818182 L9.02631579,20.1818182 Z"/>
</svg>
