<svg xmlns="http://www.w3.org/2000/svg" width="24" height="24" viewBox="0 0 24 24">
  <path fill="#1B1D22" fill-rule="evenodd" d="M5.33333333,7.16666667 L20.3333333,7.16666667 L20.3333333,5.5 L5.33333333,5.5 C4.41666667,5.5 3.66666667,6.25 3.66666667,7.16666667 L3.66666667,16.3333333 L2,16.3333333 L2,18.8333333 L13.6666667,18.8333333 L13.6666667,16.3333333 L5.33333333,16.3333333 L5.33333333,7.16666667 Z M21.1666667,8.83333333 L16.1666667,8.83333333 C15.7083333,8.83333333 15.3333333,9.20833333 15.3333333,9.66666667 L15.3333333,18 C15.3333333,18.4583333 15.7083333,18.8333333 16.1666667,18.8333333 L21.1666667,18.8333333 C21.625,18.8333333 22,18.4583333 22,18 L22,9.66666667 C22,9.20833333 21.625,8.83333333 21.1666667,8.83333333 Z M20.3333333,16.3333333 L17,16.3333333 L17,10.5 L20.3333333,10.5 L20.3333333,16.3333333 Z"/>
</svg>
