<svg xmlns="http://www.w3.org/2000/svg" width="24" height="24" viewBox="0 0 24 24">
  <path fill="#1B1D22" fill-rule="evenodd" d="M20,13 L4,13 C3.45,13 3,13.45 3,14 L3,20 C3,20.55 3.45,21 4,21 L20,21 C20.55,21 21,20.55 21,20 L21,14 C21,13.45 20.55,13 20,13 Z M7,19 C5.9,19 5,18.1 5,17 C5,15.9 5.9,15 7,15 C8.1,15 9,15.9 9,17 C9,18.1 8.1,19 7,19 Z M20,3 L4,3 C3.45,3 3,3.45 3,4 L3,10 C3,10.55 3.45,11 4,11 L20,11 C20.55,11 21,10.55 21,10 L21,4 C21,3.45 20.55,3 20,3 Z M7,9 C5.9,9 5,8.1 5,7 C5,5.9 5.9,5 7,5 C8.1,5 9,5.9 9,7 C9,8.1 8.1,9 7,9 Z"/>
</svg>
