<svg xmlns="http://www.w3.org/2000/svg" width="24" height="24" viewBox="0 0 24 24">
  <path fill="#1B1D22" fill-rule="evenodd" d="M8.29952685,13.875 C8.29952685,14.35625 8.3711644,14.79375 8.51755417,15.1875 C8.67328798,15.575 8.87574192,15.921875 9.13426004,16.225 C9.39277815,16.528125 9.69490173,16.7875 10.0499748,17.00625 C10.3925892,17.225 10.7663503,17.40625 11.1650288,17.546875 C11.5605927,17.690625 11.9748446,17.796875 12.3953259,17.865625 C12.8220365,17.934375 13.2362884,17.96875 13.6567697,17.96875 C14.1862646,17.96875 14.6783834,17.928125 15.1455849,17.84375 C15.6127863,17.75625 16.067529,17.640625 16.5160423,17.49375 C16.9645557,17.346875 17.3974957,17.171875 17.8304356,16.971875 C18.2664903,16.771875 18.7087743,16.553125 19.163517,16.309375 L19.163517,20.546875 C18.6558248,20.796875 18.1574766,21.00625 17.6591285,21.1875 C17.1607803,21.3625 16.6624321,21.515625 16.1547399,21.6375 C15.6470477,21.7625 15.1331262,21.85625 14.6067459,21.9125 C14.0803656,21.96875 13.5415267,22 12.980885,22 C12.2333627,22 11.5107579,21.9125 10.8161851,21.740625 C10.1216124,21.56875 9.47064505,21.321875 8.86016854,20.996875 C8.24969203,20.671875 7.69216501,20.278125 7.18447281,19.815625 C6.67366594,19.353125 6.24072596,18.83125 5.87630886,18.253125 C5.51189176,17.675 5.23157092,17.040625 5.02911697,16.359375 C4.83289238,15.678125 4.73322274,14.953125 4.73322274,14.184375 C4.73322274,13.3625 4.84535108,12.58125 5.06960776,11.834375 C5.29697911,11.084375 5.61779075,10.403125 6.0413867,9.778125 C6.46186797,9.153125 6.97578952,8.596875 7.58315135,8.1125 C8.19051319,7.628125 8.87262725,7.23125 9.63260821,6.925 C9.21835629,7.340625 8.89442998,7.83125 8.66705863,8.403125 C8.43345792,8.971875 8.28706814,9.54375 8.22165995,10.115625 L15.316892,10.115625 C15.316892,9.396875 15.2452545,8.771875 15.0988647,8.234375 C14.9524749,7.696875 14.7188742,7.25 14.3918332,6.896875 C14.0679069,6.540625 13.6505403,6.271875 13.1366188,6.096875 C12.6226972,5.91875 12.0028767,5.828125 11.2771572,5.828125 C10.4206213,5.828125 9.56408534,5.953125 8.70754941,6.2125 C7.85101349,6.4625 7.03808304,6.821875 6.26564337,7.275 C5.49320371,7.734375 4.78305756,8.275 4.13520494,8.89375 C3.48735232,9.51875 2.942284,10.190625 2.5,10.91875 C2.59344028,10.075 2.78032085,9.2625 3.03883896,8.490625 C3.29735707,7.71875 3.63997144,7 4.05110868,6.334375 C4.46224593,5.678125 4.94502072,5.078125 5.49631838,4.540625 C6.04761605,4.003125 6.65809256,3.540625 7.33397727,3.165625 C8.00986197,2.790625 8.72623747,2.4875 9.50490649,2.284375 C10.2835755,2.10625 11.1120793,2 11.9841886,2 C12.4949955,2 13.0026877,2.046875 13.5103799,2.1375 C14.0180721,2.23125 14.5133056,2.35625 14.9960804,2.51875 C15.9554006,2.85 16.8119366,3.3125 17.5656882,3.9 C18.3194398,4.49375 18.951719,5.16875 19.4656406,5.940625 C19.9795621,6.7125 20.3688966,7.565625 20.6367588,8.49375 C20.9046209,9.421875 21.0416667,10.3875 21.0416667,11.390625 L21.0416667,13.875 L8.29952685,13.875 Z"/>
</svg>
