<svg xmlns="http://www.w3.org/2000/svg" width="24" height="24" viewBox="0 0 24 24">
  <path fill="#1B1D22" fill-rule="evenodd" d="M12,2 C17.5228475,2 22,6.4771525 22,12 C22,17.5228475 17.5228475,22 12,22 C6.4771525,22 2,17.5228475 2,12 C2,6.4771525 6.4771525,2 12,2 Z M18.5420293,6.69204602 L16.2128972,6.69204602 L13.6864988,14.3691865 L11.7852123,8.77818441 L5.5784229,8.77818441 L5.5784229,10.1870392 L9.93942987,10.1870392 L10.3401761,11.3142701 L6.67612826,11.3142701 L6.67612826,12.7257501 L10.8420097,12.7257501 L11.1641731,13.63205 L5.48840511,13.63205 L5.48840511,15.04416 L11.6659544,15.04416 L12.4600325,17.2779882 L14.7715682,17.2779882 L18.5420293,6.69204602 Z"/>
</svg>
