<svg xmlns="http://www.w3.org/2000/svg" width="24" height="24" viewBox="0 0 24 24">
  <path fill="#1B1D22" fill-rule="evenodd" d="M20.8913858,2 C21.4981273,2 21.9925094,2.49438202 21.9925094,3.1011236 L21.9925094,3.1011236 L21.9925094,20.8913858 C21.9925094,21.4981273 21.4981273,21.9925094 20.8913858,21.9925094 L20.8913858,21.9925094 L20.8913858,21.9850187 L15.797,21.985 L15.7977528,14.247191 L18.3970037,14.247191 L18.7865169,11.2284644 L15.7977528,11.2284644 L15.7977528,9.30337079 C15.7977528,8.42696629 16.0374532,7.83520599 17.2958801,7.83520599 L18.8913858,7.83520599 L18.8913858,5.13857678 C18.6142322,5.1011236 17.6629213,5.01872659 16.5617978,5.01872659 C14.2546816,5.01872659 12.6816479,6.42696629 12.6816479,9.00374532 L12.6816479,11.2284644 L10.0749064,11.2284644 L10.0749064,14.247191 L12.6816479,14.247191 L12.681,21.985 L3.1011236,21.9850187 C2.53483146,21.9850187 2.06641698,21.5543571 2.00647857,21.0036321 L2,20.8838951 L2,3.1011236 C2,2.49438202 2.49438202,2 3.1011236,2 L3.1011236,2 Z"/>
</svg>
