<svg xmlns="http://www.w3.org/2000/svg" width="24" height="24" viewBox="0 0 24 24">
  <path fill="#1B1D22" fill-rule="evenodd" d="M13.6840675,22.300656 C18.679194,21.4943768 22.499344,17.1743205 22.499344,11.9515464 L22.4035614,12.0702905 C22.5531396,11.0776945 22.5268978,10.1933458 22.3215558,9.42183693 C22.2480787,9.99325211 22.1680412,10.3383318 22.0873477,10.4767573 C22.0866917,10.4321462 22.0755389,9.83645736 21.8859419,9.00524836 C21.7960637,8.39906279 21.6641987,7.8289597 21.4818182,7.30215558 C21.5264292,7.54358013 21.552671,7.74498594 21.5657919,7.92736645 C20.8034677,5.88181818 18.926523,3.36326148 14.3020619,3.42230553 C14.3020619,3.42230553 15.9283974,3.59418932 16.6940019,4.75342081 C16.6940019,4.75342081 15.9113402,4.56644799 15.3195876,4.85313964 C16.0405811,5.14048735 16.6657919,5.44095595 17.1978444,5.75454545 L17.2437676,5.78275539 C17.3802249,5.86476101 17.4963449,5.94873477 17.6196813,6.03205248 C18.6024367,6.72221181 19.5143393,7.70693533 19.4447985,8.97703843 C19.232896,8.64245548 18.9507966,8.42333646 18.5893158,8.3131209 C19.0347704,10.0582006 19.0787254,11.4995314 18.7185567,12.6364574 C18.4712277,11.8793814 18.2435801,11.4253983 18.0408622,11.2653233 C18.3236176,13.6047798 17.9424555,15.3347704 16.9,16.4625117 C17.0981256,15.7743205 17.176851,15.2107779 17.1322399,14.7659794 C15.9074039,16.6173383 14.5139644,17.574508 12.9519213,17.633552 C12.3345829,17.6283037 11.751359,17.5351453 11.2029053,17.3540769 C10.3972821,17.0818182 9.66841612,16.6166823 9.01958763,15.956701 C10.0325211,16.0413308 10.9575445,15.8655108 11.7716963,15.4502343 L13.1054358,14.5763824 L13.1001874,14.5724461 C13.2733833,14.5068416 13.4360825,14.51209 13.5948454,14.5862231 C13.9202437,14.541612 14.0343955,14.367104 13.925492,14.0725398 C13.7680412,13.8534208 13.5298969,13.6546392 13.2241799,13.4794752 C12.5569822,13.1311153 11.8602624,13.1862231 11.1333646,13.6500469 C10.4412371,14.0436739 9.77535145,14.0279288 9.12717901,13.6093721 C8.7027179,13.31612 8.29268978,12.9211809 7.89643861,12.4278351 L7.73898782,12.1949391 C7.66485473,12.7538894 7.74882849,13.4709466 8.00009372,14.3539831 L8.00534208,14.3657919 L8.00009372,14.3552952 C7.74817245,13.4722587 7.66485473,12.7532334 7.73898782,12.1949391 L7.73898782,12.1896907 C7.75801312,11.7015933 7.96007498,11.4326148 8.34517338,11.3722587 L8.18181818,11.3584817 L8.34648547,11.3722587 C8.7814433,11.4122774 9.28069353,11.5119963 9.84358013,11.6760075 C9.93805061,11.1328022 9.81405811,10.5640112 9.47357076,9.98078725 L9.47357076,9.97029053 C10.002343,9.4769447 10.4714152,9.1180881 10.8722587,8.8891284 C11.0500469,8.79400187 11.153702,8.64967198 11.1878163,8.45482662 L11.2022493,8.4443299 L11.2074977,8.43908154 L11.227179,8.42005623 C11.3308341,8.26522962 11.2960637,8.14058107 11.1189316,8.03036551 C10.7482662,8.05070291 10.3769447,8.02511715 10.0069353,7.95098407 L10.001687,7.9660731 C9.84882849,7.92146204 9.65595127,7.78566073 9.41846298,7.55604499 L8.81030928,6.95773196 L8.62792877,6.81405811 L8.62792877,6.83308341 L8.62268041,6.83308341 L8.62792877,6.80880975 L8.59315839,6.77272727 L8.64236176,6.73795689 C8.72633552,6.2846298 8.86476101,5.89493908 9.06223055,5.56035614 L9.10684161,5.52033739 C9.3049672,5.19100281 9.68481724,4.83739456 10.2431115,4.45951265 C9.20524836,4.58875351 8.26644799,5.05651359 7.43195876,5.86541706 C6.7398313,5.61152765 5.91977507,5.66532334 4.97572634,6.0294283 L4.86223055,6.11602624 L4.85370197,6.12061856 L4.97703843,6.03008435 L4.98228679,6.02483599 C4.38856607,5.75192127 3.98837863,4.96794752 3.79550141,3.68669166 C3.03973758,4.43523899 2.67366448,5.77160262 2.69793814,7.70103093 L2.4814433,8.02839738 L2.42567948,8.06644799 L2.41452671,8.0769447 L2.4099344,8.08153702 L2.39943768,8.1031865 C2.2846298,8.28294283 2.12652296,8.55454545 1.92708529,8.91930647 C1.64039363,9.43495783 1.54395501,9.86794752 1.51574508,10.2451734 L1.5131209,10.2497657 L1.51443299,10.2622306 L1.50524836,10.3612933 L1.52164948,10.3350515 C1.52361762,10.4223055 1.52558575,10.5102156 1.54789128,10.588941 L2.1606373,10.0850984 C1.93823805,10.648641 1.79062793,11.246298 1.7158388,11.8800375 L1.69812559,12.1700094 L1.5059044,11.9502343 C1.5059044,14.1991565 2.21968135,16.2781631 3.42417994,17.9865042 L3.46026242,18.0429241 L3.51799438,18.1118088 C4.38397376,19.3012184 5.4900656,20.301687 6.77066542,21.0403936 C7.69109653,21.585567 8.68041237,21.9673852 9.73533271,22.1943768 L9.9524836,22.2429241 C10.1709466,22.284911 10.3946579,22.3164011 10.6190253,22.3446111 C10.7850047,22.3662605 10.9509841,22.387254 11.1189316,22.401687 L11.3419869,22.4272727 L11.6588566,22.4292409 L12.0032802,22.446298 L12.277507,22.4325211 L12.729522,22.4102156 C12.9978444,22.3918463 13.2622306,22.3623243 13.5246485,22.3242737 L13.6840675,22.300656 L13.6840675,22.300656 Z M20.3219306,9.51368322 L20.3173383,9.59962512 L20.3206186,9.51302718 L20.3219306,9.51368322 L20.3219306,9.51368322 Z"/>
</svg>
