<svg xmlns="http://www.w3.org/2000/svg" width="24" height="24" viewBox="0 0 24 24">
  <path fill="#1B1D22" fill-rule="evenodd" d="M21.7674419,10.372093 L12.2325581,10.372093 L12.2325581,14.3255814 L17.7209302,14.3255814 C17.2093023,16.8372093 15.0697674,18.2790698 12.2325581,18.2790698 C8.88372093,18.2790698 6.18604651,15.5813953 6.18604651,12.2325581 C6.18604651,8.88372093 8.88372093,6.18604651 12.2325581,6.18604651 C13.6744186,6.18604651 14.9767442,6.69767442 16,7.53488372 L18.9767442,4.55813953 C17.1627907,2.97674419 14.8372093,2 12.2325581,2 C6.55813953,2 2,6.55813953 2,12.2325581 C2,17.9069767 6.55813953,22.4651163 12.2325581,22.4651163 C17.3488372,22.4651163 22,18.744186 22,12.2325581 C22,11.627907 21.9069767,10.9767442 21.7674419,10.372093 Z"/>
</svg>
