<svg xmlns="http://www.w3.org/2000/svg" width="24" height="24" viewBox="0 0 24 24">
  <path d="M12.9166667,13 L16,16.082177 L5.5,21.7467185 C5,21.9966247 4.5,22.0799268 4,21.9133227 L4,21.9133227 L12.9166667,13 Z M2.43478261,3 L12,12.040724 L2.43478261,21 C2.17391304,20.6742081 2,20.2669683 2,19.7782805 L2,19.7782805 L2,4.22171946 C2,3.73303167 2.17391304,3.32579186 2.43478261,3 L2.43478261,3 Z M17.1908832,9 L19.982906,10.6625 C21.3390313,11.45 21.3390313,13.55 19.982906,14.3375 L19.982906,14.3375 L17.1908832,16 L14,12.5 L17.1908832,9 Z M4,2.10816005 C4.49655172,1.94349635 5.07586207,1.94349635 5.57241379,2.27282376 L5.57241379,2.27282376 L16,7.9537215 L12.937931,11 Z"/>
</svg>
