<svg xmlns="http://www.w3.org/2000/svg" width="24" height="24" viewBox="0 0 24 24">
  <path fill="#1B1D22" fill-rule="evenodd" d="M12.0050023,6.50181901 C14.7662574,6.50181901 17.007276,8.74283765 17.007276,11.5040928 C17.007276,12.1543884 16.8772169,12.7646658 16.6471123,13.334925 L19.5684402,16.2562528 C21.0791269,14.9956799 22.269668,13.3649386 23,11.5040928 C21.2692133,7.11209641 16.9972715,4.00068213 11.9949977,4.00068213 C10.5943611,4.00068213 9.25375171,4.25079582 8.01318781,4.70100045 L10.1741701,6.86198272 C10.7444293,6.63187813 11.3547067,6.50181901 12.0050023,6.50181901 Z M2.00045475,3.77057754 L4.28149159,6.05161437 L4.74170077,6.51182356 C3.08094588,7.80241019 1.78035471,9.52319236 1,11.5040928 C2.73078672,15.8960891 7.00272851,19.0075034 12.0050023,19.0075034 C13.5557071,19.0075034 15.0363802,18.707367 16.3869941,18.1671214 L16.8071851,18.5873124 L19.7385175,21.5086403 L21.009095,20.2380628 L3.27103229,2.5 L2.00045475,3.77057754 Z M7.53296953,9.30309231 L9.0836744,10.8537972 C9.03365166,11.0638927 9.00363802,11.2839927 9.00363802,11.5040928 C9.00363802,13.1648477 10.3442474,14.505457 12.0050023,14.505457 C12.2251023,14.505457 12.4452024,14.4754434 12.6552979,14.4254206 L14.2060027,15.9761255 C13.535698,16.3062756 12.7953615,16.5063665 12.0050023,16.5063665 C9.24374716,16.5063665 7.00272851,14.2653479 7.00272851,11.5040928 C7.00272851,10.7137335 7.20281946,9.973397 7.53296953,9.30309231 L7.53296953,9.30309231 Z M11.8449295,8.52273761 L14.996362,11.6741701 L15.0163711,11.5140973 C15.0163711,9.85334243 13.6757617,8.51273306 12.0150068,8.51273306 L11.8449295,8.52273761 Z"/>
</svg>
