<svg xmlns="http://www.w3.org/2000/svg" width="24" height="24" viewBox="0 0 24 24">
  <path fill="#1B1D22" fill-rule="evenodd" d="M12.4897,14.3621 L13.6517,15.5441 C15.5597,17.4871 18.6617,17.4851 20.5667,15.5381 C21.4907,14.5921 21.9997,13.3361 21.9997,12.0001 C21.9997,10.6631 21.4907,9.4071 20.5667,8.4621 C18.6617,6.5151 15.5587,6.5121 13.6517,8.4561 L8.5257,13.6761 C7.6237,14.5951 6.1567,14.5941 5.2557,13.6731 C4.3527,12.7501 4.3527,11.2491 5.2557,10.3271 C5.7067,9.8661 6.2997,9.6351 6.8917,9.6351 C7.4837,9.6351 8.0747,9.8651 8.5257,10.3241 L9.6817,11.4961 L11.5117,9.6361 L10.3467,8.4561 C8.4387,6.5121 5.3357,6.5151 3.4307,8.4621 C1.5227,10.4131 1.5227,13.5871 3.4307,15.5381 C4.3847,16.5121 5.6377,17.0001 6.8917,17.0001 C8.1427,17.0001 9.3937,16.5151 10.3467,15.5441 L15.4717,10.3241 C16.3747,9.4041 17.8417,9.4061 18.7417,10.3271 C19.1797,10.7741 19.4207,11.3681 19.4207,12.0001 C19.4207,12.6321 19.1797,13.2261 18.7417,13.6731 C17.8417,14.5941 16.3747,14.5951 15.4717,13.6761 L14.3167,12.5021 L12.4897,14.3621 Z"/>
</svg>
