<svg xmlns="http://www.w3.org/2000/svg" width="24" height="24" viewBox="0 0 24 24">
  <path fill="#1B1D22" fill-rule="evenodd" d="M11.9968651,2.00630952 C9.28186508,2.00630952 8.94142857,2.01781746 7.87515873,2.06646825 C6.81111111,2.115 6.08440476,2.28400794 5.44853175,2.53115079 C4.79115079,2.7865873 4.23365079,3.1284127 3.67785714,3.68416667 C3.12210317,4.23996032 2.78027778,4.79746032 2.52484127,5.45484127 C2.27769841,6.09071429 2.10869048,6.81742063 2.06015873,7.88146825 C2.01150794,8.9477381 2,9.2881746 2,12.0031746 C2,14.7181349 2.01150794,15.0585714 2.06015873,16.1248413 C2.10869048,17.1888889 2.27769841,17.9155952 2.52484127,18.5514683 C2.78027778,19.2088492 3.12210317,19.7663492 3.67785714,20.3221429 C4.23365079,20.8778968 4.79115079,21.2197222 5.44853175,21.4751984 C6.08440476,21.7223016 6.81111111,21.8913095 7.87515873,21.9398413 C8.94142857,21.9884921 9.28186508,22 11.9968651,22 C14.7118254,22 15.0522619,21.9884921 16.1185317,21.9398413 C17.1825794,21.8913095 17.9092857,21.7223016 18.5451587,21.4751984 C19.2025397,21.2197222 19.7600397,20.8778968 20.3158333,20.3221429 C20.8715873,19.7663492 21.2134127,19.2088492 21.4688889,18.5514683 C21.7159921,17.9155952 21.885,17.1888889 21.9335317,16.1248413 C21.9821825,15.0585714 21.9936905,14.7181349 21.9936905,12.0031746 C21.9936905,9.2881746 21.9821825,8.9477381 21.9335317,7.88146825 C21.885,6.81742063 21.7159921,6.09071429 21.4688889,5.45484127 C21.2134127,4.79746032 20.8715873,4.23996032 20.3158333,3.68416667 C19.7600397,3.1284127 19.2025397,2.7865873 18.5451587,2.53115079 C17.9092857,2.28400794 17.1825794,2.115 16.1185317,2.06646825 C15.0522619,2.01781746 14.7118254,2.00630952 11.9968651,2.00630952 Z M16.0364286,3.86583333 C17.0111111,3.91027778 17.5404365,4.07313492 17.8926984,4.21003968 C18.3593254,4.39138889 18.6923413,4.60801587 19.0421429,4.95785714 C19.3919841,5.30765873 19.6086111,5.6406746 19.7899603,6.10730159 C19.9268651,6.45956349 20.0897222,6.98888889 20.1341667,7.96357143 C20.176918,8.90057319 20.1897261,9.25451401 20.1920446,11.1963243 L20.1920446,12.8100131 C20.1897261,14.7517955 20.176918,15.1057363 20.1341667,16.0427381 C20.0897222,17.0174206 19.9268651,17.546746 19.7899603,17.8990079 C19.6086111,18.3656349 19.3919841,18.6986508 19.0421429,19.0484524 C18.6923413,19.3982937 18.3593254,19.6149206 17.8926984,19.7962698 C17.5404365,19.9331746 17.0111111,20.0960317 16.0364286,20.1404762 C15.0995679,20.1832275 14.7456741,20.1960357 12.8037611,20.1983541 L11.1899586,20.1983541 C9.2480242,20.1960357 8.89415785,20.1832275 7.9572619,20.1404762 C6.98257937,20.0960317 6.45325397,19.9331746 6.10099206,19.7962698 C5.63436508,19.6149206 5.30134921,19.3982937 4.95154762,19.0484524 C4.60174603,18.6986508 4.38507937,18.3656349 4.20373016,17.8990079 C4.0668254,17.546746 3.90396825,17.0174206 3.85952381,16.0427381 C3.81855379,15.1447781 3.80508367,14.7823028 3.80199172,13.0446229 L3.80199172,10.9617111 C3.80508367,9.22400668 3.81855379,8.86153145 3.85952381,7.96357143 C3.90396825,6.98888889 4.0668254,6.45956349 4.20373016,6.10730159 C4.38507937,5.6406746 4.60170635,5.30765873 4.95154762,4.95785714 C5.30134921,4.60801587 5.63436508,4.39138889 6.10099206,4.21003968 C6.45325397,4.07313492 6.98257937,3.91027778 7.9572619,3.86583333 C8.85522193,3.82486332 9.21769716,3.81139319 10.9554016,3.80830125 L13.0383134,3.80830125 C14.7759933,3.81139319 15.1384685,3.82486332 16.0364286,3.86583333 Z M11.9968651,6.86964286 C9.16166667,6.86964286 6.86333333,9.16797619 6.86333333,12.0031746 C6.86333333,14.8383333 9.16166667,17.1366667 11.9968651,17.1366667 C14.8320238,17.1366667 17.1303571,14.8383333 17.1303571,12.0031746 C17.1303571,9.16797619 14.8320238,6.86964286 11.9968651,6.86964286 Z M11.9968651,8.67087302 C13.8372222,8.67087302 15.329127,10.1627778 15.329127,12.0031746 C15.329127,13.8435317 13.8372222,15.3354365 11.9968651,15.3354365 C10.1564683,15.3354365 8.66456349,13.8435317 8.66456349,12.0031746 C8.66456349,10.1627778 10.1564683,8.67087302 11.9968651,8.67087302 Z M17.3331746,5.46718254 C16.6706746,5.46718254 16.1335714,6.00428571 16.1335714,6.6668254 C16.1335714,7.32936508 16.6706746,7.86642857 17.3331746,7.86642857 C17.9957143,7.86642857 18.5328175,7.32936508 18.5328175,6.6668254 C18.5328175,6.00428571 17.9957143,5.46718254 17.3331746,5.46718254 Z"/>
</svg>
