<svg xmlns="http://www.w3.org/2000/svg" width="24" height="24" viewBox="0 0 24 24">
  <path fill="#1B1D22" fill-rule="evenodd" d="M16.5,2 C17.475,2 18.275,2.0625 18.925,2.25 C19.525,2.425 19.95,2.7 20.325,2.98125 C20.9625,3.475 21.4125,4.16875 21.6,4.6625 L21.6,4.6625 C21.99375,5.65625 22,6.78125 22,7.49375 L22,7.49375 L22,16.49375 C22,17.20625 22,18.3375 21.60625,19.33125 C21.4125,19.825 20.9625,20.525 20.325,21.0125 C19.9625,21.29375 19.51875,21.5625 18.91875,21.74375 C18.275,21.9375 17.48125,22 16.5,22 L16.5,22 L7.5,22 C6.51875,22 5.725,21.9375 5.08125,21.75 C4.48125,21.575 4.04375,21.3 3.675,21.01875 C3.0375,20.525 2.5875,19.83125 2.39375,19.3375 C2.00625,18.3375 2,17.2125 2,16.5 L2.00034722,7.31359592 C2.00368924,6.60091146 2.03854167,5.5796875 2.39375,4.66875 C2.5875,4.175 3.0375,3.475 3.675,2.9875 C4.0375,2.70625 4.48125,2.4375 5.08125,2.25625 C5.725,2.0625 6.51875,2 7.5,2 L7.5,2 Z M10.6239082,8.60622102 C9.62044352,8.60622102 8.81917381,8.98180918 8.22009905,9.73181178 C7.66204098,10.4331053 7.38358964,11.3075215 7.38358964,12.3550603 C7.38358964,13.3814723 7.65164238,14.2312405 8.18890326,14.903778 C8.76718082,15.6332407 9.54765334,15.9976785 10.5303208,15.9976785 C11.5684475,15.9976785 12.3806935,15.6261984 12.9659034,14.8826512 C13.509519,14.1960291 13.781038,13.3110495 13.781038,12.2277124 C13.781038,11.2013004 13.5129852,10.3550534 12.976302,9.68955811 C12.3974468,8.96713777 11.6135081,8.60622102 10.6239082,8.60622102 Z M17.1253425,8.61619759 C16.4072615,8.61619759 15.8307171,8.80399166 15.3951314,9.17899296 C14.9595457,9.55458111 14.7417528,10.0358034 14.7417528,10.6232468 C14.7417528,11.5228978 15.3587363,12.2059987 16.5921255,12.6731365 C17.0450422,12.842738 17.3691318,13.027011 17.5643944,13.2253685 C17.7596569,13.423726 17.8572882,13.6678583 17.8572882,13.9583522 C17.8572882,14.2840576 17.7388597,14.544035 17.5020028,14.7388714 C17.2651458,14.9337077 16.9341238,15.0311259 16.5089367,15.0311259 C15.9162167,15.0311259 15.3731788,14.8826512 14.87809,14.585115 L14.87809,14.585115 L14.6169697,15.5405173 C15.0773964,15.8380536 15.6868698,15.9865283 16.4465451,15.9865283 C17.2691897,15.9865283 17.9104366,15.7776073 18.3702857,15.3597655 C18.7885404,14.977722 18.9976677,14.4824151 18.9976677,13.873258 C18.9976677,13.3779512 18.8549759,12.9636305 18.5690144,12.6308828 C18.283053,12.2981352 17.8376464,12.0076412 17.2310615,11.7599878 C16.7365505,11.5616303 16.3951298,11.3773574 16.2067997,11.2077559 C15.9907399,11.0240698 15.8827101,10.7905009 15.8827101,10.5070492 C15.8827101,10.2523535 15.9768751,10.0363903 16.1652053,9.85915963 C16.3876197,9.66080214 16.6978446,9.56162339 17.0953021,9.56162339 C17.5967456,9.56162339 18.0461961,9.67136556 18.4436536,9.89084988 L18.4436536,9.89084988 L18.7249934,8.95598749 C18.2998063,8.72946089 17.7665893,8.61619759 17.1253425,8.61619759 Z M6.25418641,10.7194913 L5.12536087,10.7194913 L5.12536087,15.8808941 L6.25418641,15.8808941 L6.25418641,10.7194913 Z M10.5823138,9.52993314 C11.2374254,9.52993314 11.746379,9.83451166 12.1085968,10.4430818 C12.4222879,10.9530601 12.5788445,11.5622172 12.5788445,12.2699661 C12.5788445,13.006471 12.4292203,13.6291257 12.1288163,14.139104 C11.7665985,14.7617588 11.2472463,15.0733796 10.5713375,15.0733796 C9.91622585,15.0733796 9.40380607,14.7693879 9.03465586,14.1602309 C8.72096483,13.6508394 8.56440817,13.0387481 8.56440817,12.32337 C8.56440817,11.5939074 8.71807633,10.974187 9.02483496,10.4642087 C9.38705278,9.84155394 9.90640496,9.52993314 10.5823138,9.52993314 Z M5.68977364,8.5 C5.49508878,8.5 5.33102202,8.5633805 5.19872875,8.69131522 C5.06643548,8.81866307 5,8.98122232 5,9.17957982 C5,9.37793731 5.06412469,9.54225713 5.19352945,9.67312613 C5.32235652,9.80458198 5.48064629,9.86972305 5.66897644,9.86972305 C5.8781038,9.86972305 6.04910296,9.80575569 6.18139622,9.67840783 C6.31368949,9.55105998 6.38012498,9.38497959 6.38012498,9.17957982 C6.38012498,8.98180918 6.31368949,8.81866307 6.18081852,8.69131522 C6.04852526,8.5633805 5.88503619,8.5 5.68977364,8.5 Z"/>
</svg>
