<svg xmlns="http://www.w3.org/2000/svg" width="24" height="24" viewBox="0 0 24 24">
  <path fill="#1B1D22" fill-rule="evenodd" d="M12,4 L22,13 L19,13 L19,21 L5,21 L5,13 L2,13 L12,4 Z M10.6363636,16.6710227 L12,18.0346591 L13.3636364,16.6710227 C12.6136364,15.9164773 11.3909091,15.9164773 10.6363636,16.6710227 Z M8.81818182,14.8528409 L9.72727273,15.7619318 C10.9818182,14.5073864 13.0181818,14.5073864 14.2727273,15.7619318 L15.1818182,14.8528409 C13.4272727,13.0982955 10.5772727,13.0982955 8.81818182,14.8528409 Z M7,13.0346591 L7.90909091,13.94375 C10.1681818,11.6846591 13.8318182,11.6846591 16.0909091,13.94375 L17,13.0346591 C14.2409091,10.2755682 9.76363636,10.2755682 7,13.0346591 Z"/>
</svg>
