<svg xmlns="http://www.w3.org/2000/svg" width="24" height="24" viewBox="0 0 24 24">
  <path fill="#1B1D22" fill-rule="evenodd" d="M17.8076923,0 L6.19230769,0 C4.42924484,0 3,1.42924484 3,3.19230769 L3,20.8076923 C3,22.5707552 4.42924484,24 6.19230769,24 L17.8076923,24 C19.5707552,24 21,22.5707552 21,20.8076923 L21,3.19230769 C21,1.42924484 19.5707552,0 17.8076923,0 Z M19.5,3.5 L19.5,20.5 C19.5,21.6045695 18.6045695,22.5 17.5,22.5 L6.5,22.5 C5.3954305,22.5 4.5,21.6045695 4.5,20.5 L4.5,3.5 C4.5,2.3954305 5.3954305,1.5 6.5,1.5 L17.5,1.5 C18.6045695,1.5 19.5,2.3954305 19.5,3.5 Z"/>
</svg>
