<svg xmlns="http://www.w3.org/2000/svg" width="24" height="24" viewBox="0 0 24 24">
  <path fill="#1B1D22" fill-rule="evenodd" d="M15.8076923,1 C17.5707552,1 19,2.42924484 19,4.19230769 L19,4.19230769 L19,19.8076923 C19,21.5707552 17.5707552,23 15.8076923,23 L15.8076923,23 L8.19230769,23 C6.42924484,23 5,21.5707552 5,19.8076923 L5,19.8076923 L5,4.19230769 C5,2.42924484 6.42924484,1 8.19230769,1 L8.19230769,1 Z M15.6392668,3.16439899 C15.5589022,3.64658696 15.1417121,4 14.6528729,4 L9.34712709,4 C8.85828794,4 8.44109783,3.64658696 8.36073316,3.16439899 L8.25,2.5 L8.19230769,2.5 C7.25767196,2.5 6.5,3.25767196 6.5,4.19230769 L6.5,4.19230769 L6.5,19.8076923 C6.5,20.742328 7.25767196,21.5 8.19230769,21.5 L8.19230769,21.5 L15.8076923,21.5 C16.742328,21.5 17.5,20.742328 17.5,19.8076923 L17.5,19.8076923 L17.5,4.19230769 C17.5,3.25767196 16.742328,2.5 15.8076923,2.5 L15.8076923,2.5 L15.75,2.5 L15.6392668,3.16439899 Z"/>
</svg>
