<svg xmlns="http://www.w3.org/2000/svg" width="24" height="24" viewBox="0 0 24 24">
  <path fill="#1B1D22" fill-rule="evenodd" d="M9.60101742,12.9820612 C9.59901742,12.9600612 9.59801742,12.9380612 9.59601742,12.9150612 C9.54301742,12.9150612 9.47701742,12.8950612 9.43901742,12.9190612 C9.32501742,12.9920612 9.23501742,12.9590612 9.15401742,12.8750612 C9.05101742,12.7690612 8.95701742,12.6530612 8.85301742,12.5490612 C8.78701742,12.4820612 8.70701742,12.4270612 8.59301742,12.3340612 C8.51601742,12.7690612 8.44401742,13.1400612 8.38701742,13.5130612 C8.37001742,13.6260612 8.43401742,13.6830612 8.55201742,13.6130612 C8.90201742,13.4030612 9.25101742,13.1920612 9.60101742,12.9820612 L9.60101742,12.9820612 Z M11.3770174,15.3350612 C11.2320174,15.4360612 11.0720174,15.5530612 10.9060174,15.6600612 C10.6320174,15.8360612 10.3280174,15.9750612 10.0820174,16.1840612 C9.53401742,16.6510612 8.99001742,17.1200612 8.35501742,17.4690612 C8.33401742,17.4810612 8.32001742,17.5050612 8.27901742,17.5500612 C10.2590174,17.7990612 12.0930174,18.4970612 13.9780174,19.0310612 C13.9950174,18.8740612 13.9970174,18.7370612 14.0280174,18.6070612 C14.0630174,18.4590612 14.0310174,18.3400612 13.9400174,18.2250612 C13.7340174,17.9630612 13.5310174,17.6990612 13.3270174,17.4370612 C13.2580174,17.3500612 13.1880174,17.2650612 13.1240174,17.1850612 C12.9830174,17.2350612 12.9040174,17.4240612 12.7460174,17.3150612 C12.4720174,17.1270612 12.3000174,16.8660612 12.2300174,16.5390612 C12.2120174,16.4560612 12.2000174,16.3590612 12.1510174,16.2960612 C11.8980174,15.9690612 11.6340174,15.6510612 11.3770174,15.3350612 L11.3770174,15.3350612 Z M3.28901742,21.7840612 C3.09101742,21.7100612 2.87801742,21.6610612 2.69601742,21.5570612 C2.24201742,21.2950612 2.02401742,20.8680612 2.01001742,20.3580612 C1.99001742,19.6440612 2.00701742,18.9300612 2.00201742,18.2150612 C2.00101742,18.1050612 2.04501742,18.0620612 2.13901742,18.0230612 C3.03901742,17.6480612 3.97001742,17.3950612 4.94001742,17.2910612 C4.96401742,17.2890612 4.98701742,17.2850612 5.01501742,17.2810612 C4.83401742,17.0260612 4.65501742,16.7760612 4.46501742,16.5090612 C4.56501742,16.4500612 4.63301742,16.4090612 4.75201742,16.3380612 L3.94501742,16.3380612 C4.12301742,15.6540612 3.93001742,15.0250612 3.88301742,14.3890612 C3.83001742,13.6830612 3.75001742,12.9760612 3.76201742,12.2710612 C3.78701742,10.8510612 4.25901742,9.57806121 5.19101742,8.49606121 C5.37901742,8.27906121 5.62801742,8.11206121 5.85701742,7.93406121 C5.99601742,7.82606121 6.10501742,7.71506121 6.16801742,7.54006121 C6.31001742,7.14706121 6.37301742,7.12806121 6.77601742,7.26906121 C6.84901742,7.29406121 6.92101742,7.32106121 6.97701742,7.34106121 C7.02001742,7.21106121 7.06201742,7.08406121 7.10401742,6.95706121 C7.06701742,6.84806121 6.79601742,6.98206121 6.88301742,6.74106121 C6.83501742,6.72406121 6.78701742,6.70606121 6.74501742,6.69006121 C6.73501742,6.67106121 6.72501742,6.66106121 6.72501742,6.65006121 C6.71501742,6.37306121 6.73101742,6.09106121 6.69201742,5.81706121 C6.60001742,5.17106121 6.76001742,4.57906121 7.08701742,4.04206121 C7.33601742,3.63506121 7.71101742,3.30906121 8.14301742,3.11706121 C8.41601742,2.99606121 8.75701742,3.00406121 9.06801742,3 C9.20601742,2.99706121 9.34701742,3.10506121 9.49601742,3.16606121 C9.59901742,3.14506121 9.72701742,3.12006121 9.85501742,3.09406121 C9.84801742,3.11806121 9.84001742,3.14206121 9.83101742,3.16906121 C10.2890174,3.19406121 10.6220174,3.40006121 10.8510174,3.80906121 C10.9690174,4.01806121 11.1740174,4.17706121 11.2980174,4.38406121 C11.4460174,4.63106121 11.5540174,4.90206121 11.6730174,5.16606121 C11.7880174,5.41806121 11.6770174,5.64906121 11.5740174,5.86806121 C11.5000174,6.02606121 11.3830174,6.16406121 11.2790174,6.31906121 C11.2370174,6.25906121 11.2030174,6.21106121 11.1690174,6.16306121 C10.8910174,6.37906121 10.7990174,6.68006121 10.9090174,7.03706121 C11.0070174,7.35506121 10.9840174,7.38906121 10.6670174,7.45306121 C10.6240174,7.46206121 10.5660174,7.53506121 10.5620174,7.58206121 C10.5460174,7.79506121 10.3780174,7.89406121 10.2560174,8.02906121 C10.2010174,8.09006121 10.1320174,8.15306121 10.1070174,8.22806121 C10.0480174,8.41106121 9.96201742,8.49106121 9.76001742,8.49606121 C9.40401742,8.50406121 9.10501742,8.33706121 8.81501742,8.16306121 C8.66601742,8.07306121 8.57901742,8.09906121 8.49701742,8.26706121 C8.83301742,8.42406121 8.85701742,8.78306121 9.00501742,9.06606121 C9.15901742,9.36106121 9.30301742,9.66106121 9.46201742,9.95306121 C9.52701742,10.0720612 9.62201742,10.1740612 9.70101742,10.2850612 C9.88101742,10.5370612 10.0590174,10.7900612 10.2410174,11.0400612 C10.2660174,11.0750612 10.3090174,11.0980612 10.3470174,11.1220612 C10.3920174,11.1490612 10.4460174,11.1650612 10.4850174,11.1980612 C10.7030174,11.3870612 10.7160174,11.5380612 10.5200174,11.7910612 C10.7180174,11.7060612 10.7710174,11.8790612 10.8820174,11.9460612 C10.9340174,11.9770612 11.0150174,12.0110612 11.0590174,11.9910612 C11.5430174,11.7780612 12.0300174,11.5680612 12.5000174,11.3280612 C12.7400174,11.2050612 12.9630174,11.0360612 13.1680174,10.8580612 C13.2740174,10.7660612 13.3230174,10.6090612 13.4080174,10.4640612 C13.2840174,10.4320612 13.2120174,10.4140612 13.1110174,10.3880612 C13.1540174,10.3200612 13.1800174,10.2700612 13.2150174,10.2280612 C13.8480174,9.46906121 14.4790174,8.71006121 15.1170174,7.95706121 C15.1630174,7.90206121 15.2560174,7.86006121 15.3270174,7.85906121 C15.6900174,7.85606121 16.0530174,7.86506121 16.4160174,7.87606121 C16.4690174,7.87806121 16.5200174,7.91406121 16.5730174,7.93406121 C16.5520174,7.98606121 16.5430174,8.04806121 16.5090174,8.08806121 C16.0890174,8.58206121 15.6500174,9.06006121 15.2490174,9.56906121 C15.0740174,9.79306121 14.9980174,10.0810612 14.9130174,10.3610612 C14.8060174,10.7100612 14.7930174,11.1300612 14.4010174,11.3380612 C14.2120174,11.4380612 14.0330174,11.5640612 13.8330174,11.6330612 C13.5500174,11.7320612 13.3130174,11.8820612 13.1050174,12.0960612 C12.9360174,12.2710612 12.7480174,12.4270612 12.5890174,12.5720612 C12.7470174,12.9020612 12.8890174,13.2280612 13.0560174,13.5390612 C13.2570174,13.9160612 13.4810174,14.2800612 13.6920174,14.6520612 C13.7570174,14.7650612 13.8050174,14.8870612 13.8720174,14.9980612 C13.9190174,15.0750612 13.9850174,15.1410612 14.0450174,15.2100612 C14.1000174,15.2720612 14.1660174,15.3250612 14.2110174,15.3930612 C14.2670174,15.4770612 14.3090174,15.5690612 14.3530174,15.6610612 C14.5200174,16.0130612 14.5190174,16.0130612 14.2910174,16.2600612 C14.3560174,16.3270612 14.4330174,16.3800612 14.4760174,16.4540612 C14.6760174,16.7910612 14.8570174,17.1390612 15.0630174,17.4710612 C15.2760174,17.8140612 15.6180174,18.0220612 15.9440174,18.2390612 C16.2210174,18.4230612 16.4950174,18.6200612 16.7920174,18.7640612 C17.1270174,18.9270612 17.4850174,19.0430612 17.8370174,19.1650612 C17.9150174,19.1920612 18.0140174,19.1650612 18.1010174,19.1510612 C18.2790174,19.1260612 18.3690174,19.2000612 18.3040174,19.3640612 C18.2510174,19.4970612 18.1320174,19.6030612 18.0430174,19.7210612 C18.5730174,19.8240612 19.1320174,19.8780612 19.6970174,19.8240612 C20.3460174,19.7610612 20.9590174,19.5860612 21.4900174,19.1890612 C21.6690174,19.0550612 21.8300174,18.8970612 22.0000174,18.7490612 L22.0000174,20.4990612 C21.9860174,20.5370612 21.9670174,20.5750612 21.9600174,20.6140612 C21.8760174,21.0640612 21.6290174,21.3960612 21.2290174,21.6050612 C21.0700174,21.6890612 20.8870174,21.7260612 20.7140174,21.7840612 L3.28901742,21.7840612 Z"/>
</svg>
