<svg xmlns="http://www.w3.org/2000/svg" width="24" height="24" viewBox="0 0 24 24">
  <path fill="#1B1D22" fill-rule="evenodd" d="M10.7550284,12.5 C11.4409489,12.5 12,13.0420667 12,13.7081221 L12,13.7081221 L12,20.7918779 C12,21.4579333 11.4409489,22 10.7550284,22 L10.7550284,22 L3.24187726,22 C2.55698814,22 2,21.458958 2,20.7939273 L2,20.7939273 L2,13.705048 C2,13.041042 2.55698814,12.5 3.24187726,12.5 L3.24187726,12.5 Z M10.6049016,13.5 L3.39212774,13.5 C3.17625944,13.5 3,13.6686598 3,13.877291 L3,13.877291 L3,20.621734 C3,20.8303653 3.17625944,21 3.39212774,21 L3.39212774,21 L10.6049016,21 C10.8227503,21 11,20.8293904 11,20.6197842 L11,20.6197842 L11,13.8802158 C11,13.6706096 10.8227503,13.5 10.6049016,13.5 L10.6049016,13.5 Z M7.50363636,14.75 L7.53272727,14.8209091 L9.5,19.75 L8.40272727,19.75 L7.92363636,18.5545455 L6.07181818,18.5545455 L5.59727273,19.75 L4.5,19.75 L6.49545455,14.75 L7.50363636,14.75 Z M7,16.2354545 L6.48090909,17.5381818 L7.51818182,17.5381818 L7,16.2354545 Z M14.9934667,1.9999 C18.864,1.9999 22,5.1359 22,8.9999 C22,12.8639 18.864,15.9999 14.9934667,15.9999 C14.4278667,15.9999 13.5264,15.9292037 13,15.8032037 L13,15.8032037 L13,12.5064454 C13,12 12.5030969,11.5 12,11.5 L12,11.5 L8.34346667,11.5 C8.12226667,10.8196 8,9.75403333 8,8.9999 C8,5.1359 11.1294667,1.9999 14.9934667,1.9999 Z M16.3374667,11.7999 L13.6625333,11.7999 C13.964,12.8013667 14.4185333,13.7319 15,14.5719 C15.5814667,13.7319 16.036,12.8013667 16.3374667,11.7999 L16.3374667,11.7999 Z M19.844,11.7999 L17.7794667,11.7999 C17.5545333,12.6753667 17.2334667,13.5144333 16.8125333,14.2919 C18.1005333,13.8513667 19.172,12.9553667 19.844,11.7999 L19.844,11.7999 Z M20.418,7.5999 L18.052,7.5999 C18.108,8.0619 18.15,8.5239 18.15,8.9999 C18.15,9.4759 18.108,9.9379 18.052,10.3999 L18.052,10.3999 L20.418,10.3999 C20.53,9.9519 20.6,9.48336667 20.6,8.9999 C20.6,8.51643333 20.53,8.0479 20.418,7.5999 L20.418,7.5999 Z M16.638,7.5999 L13.362,7.5999 C13.2985333,8.05536667 13.25,8.5239 13.25,8.9999 C13.25,9.4759 13.2985333,9.9379 13.362,10.3999 L13.362,10.3999 L16.638,10.3999 C16.7005333,9.9379 16.75,9.4759 16.75,8.9999 C16.75,8.5239 16.7005333,8.05536667 16.638,7.5999 L16.638,7.5999 Z M11.948,7.5999 L9.582,7.5999 C9.47,8.0479 9.4,8.51643333 9.4,8.9999 C9.4,9.48336667 9.47,9.9519 9.582,10.3999 L9.582,10.3999 L11.948,10.3999 C11.892,9.9379 11.85,9.4759 11.85,8.9999 C11.85,8.5239 11.892,8.0619 11.948,7.5999 L11.948,7.5999 Z M13.1874667,3.7079 C11.8985333,4.14936667 10.828,5.0379 10.156,6.1999 L10.156,6.1999 L12.2205333,6.1999 C12.4445333,5.32536667 12.7665333,4.48536667 13.1874667,3.7079 Z M15,3.4279 C14.4185333,4.2679 13.964,5.19936667 13.6625333,6.1999 L13.6625333,6.1999 L16.3374667,6.1999 C16.036,5.19936667 15.5814667,4.2679 15,3.4279 Z M16.8125333,3.7079 C17.2334667,4.48536667 17.5545333,5.32536667 17.7794667,6.1999 L17.7794667,6.1999 L19.844,6.1999 C19.172,5.04536667 18.1005333,4.14936667 16.8125333,3.7079 Z"/>
</svg>
