<svg xmlns="http://www.w3.org/2000/svg" width="24" height="24" viewBox="0 0 24 24">
  <path fill="#1B1D22" fill-rule="evenodd" d="M4.93590323,10.6880614 L7.30203374,11.6691896 C7.03525198,12.3427105 6.82244556,13.0363776 6.66562622,13.7436333 L6.57587645,14.1515869 L9.9680101,17.5457603 L10.3759636,17.4580503 C11.0832194,17.301231 11.7768864,17.0884245 12.4504074,16.8216428 L13.4315356,19.1877733 C13.4510678,19.2354099 13.4932515,19.2700267 13.543784,19.2798867 C13.5943165,19.2897467 13.6464195,19.2735273 13.682427,19.2367277 L15.1653382,17.7538166 C15.6547286,17.2644841 15.9141031,16.5908516 15.8792568,15.8996678 L15.8262229,14.9470963 C18.5717502,12.9195672 21.3499138,9.36425213 22.1066676,3.15927884 C22.1501742,2.84392849 22.0439382,2.52634986 21.8194408,2.3006519 C21.5949433,2.07495394 21.2779358,1.9670257 20.9623579,2.00884987 C14.7594244,2.77172298 11.2020695,5.55192633 9.17454047,8.28929456 L8.22400873,8.24034013 C7.53435487,8.20281497 6.86094499,8.45839958 6.36985991,8.94405998 L4.8869488,10.4269711 C4.84512534,10.4625267 4.82555823,10.5177653 4.83567466,10.5717196 C4.84579109,10.6256739 4.88404007,10.6700719 4.93590323,10.6880614 Z M14.4493797,7.07359302 C15.1669565,6.35850346 16.3281559,6.35984744 17.0440755,7.07659615 C17.7599951,7.79334485 17.7599951,8.95454498 17.0440755,9.67129369 C16.3281559,10.3880424 15.1669565,10.3893864 14.4493797,9.67429681 C14.1037226,9.32983781 13.9094334,8.86193145 13.9094334,8.37394492 C13.9094334,7.88595838 14.1037226,7.41805203 14.4493797,7.07359302 Z M4.49327364,17.8170494 C4.10062386,17.6792557 3.67897564,17.6455239 3.26941303,17.7191406 C3.19542298,17.7351446 3.11839824,17.7120371 3.06543626,17.6579475 C2.99927043,17.5920414 2.98134312,17.4918114 3.02056138,17.4070561 C3.45503189,16.4728425 4.60750063,14.5942165 6.69418297,16.1118036 C6.71622928,16.1315378 6.72882903,16.1597263 6.72882903,16.1893148 C6.72882903,16.2189033 6.71622928,16.2470918 6.69418297,16.266826 C6.12760832,16.7130193 5.8072334,17.4022419 5.83136124,18.1230146 C5.83451092,18.2095459 5.90393179,18.2789667 5.99046312,18.2821164 C6.70811041,18.3109699 7.39688372,17.9976159 7.84665171,17.4376526 C7.8664087,17.4134621 7.89598924,17.3994287 7.92722253,17.3994287 C7.95845583,17.3994287 7.98803637,17.4134621 8.00779336,17.4376526 C8.29744037,17.7823734 9.09498953,18.9083251 8.21177013,19.9955213 C7.82618818,20.4589586 7.27371964,20.7520453 6.67378529,20.8114284 C5.81708287,20.9032179 4.23422315,21.1826661 3.58761679,21.921062 C3.53472888,21.9837247 3.45164365,22.0121904 3.37144048,21.9951259 C3.29123732,21.9780614 3.22693721,21.9182371 3.20414047,21.8394713 C2.97568649,21.06028 2.62076691,19.3183184 4.49327364,17.8170494 Z"/>
</svg>
