<svg xmlns="http://www.w3.org/2000/svg" width="24" height="24" viewBox="0 0 24 24">
  <path fill="#1B1D22" fill-rule="evenodd" d="M12,2 C17.5182406,2 22,6.4762361 22,12.002201 C22,17.5279069 17.5182406,22 12,22 C6.47322122,22 2,17.5279069 2,12.002201 C2,6.4762361 6.47322122,2 12,2 Z M12.0025873,3.62068385 C7.38680466,3.62068385 3.63027167,7.38147827 3.63027167,11.998058 C3.63027167,14.2404485 4.50090556,16.3422364 6.0778784,17.9227851 C7.66131953,19.4997087 9.76248383,20.3710302 12.0025873,20.3710302 C14.2341527,20.3710302 16.3347995,19.4997087 17.9153946,17.9227851 C19.4962484,16.3422364 20.371022,14.2404485 20.371022,11.998058 L20.371022,11.6254483 L14.3927555,11.6254483 L14.3927555,12.3965613 L19.5736093,12.3965613 C19.5736093,12.4133922 19.5736093,12.4952161 19.5699871,12.5164489 C19.3065977,16.4631598 16.0129366,19.5890418 12.0025873,19.5890418 C9.97257439,19.5890418 8.0690815,18.7990264 6.63648124,17.364259 C5.1992238,15.9354471 4.4072445,14.0320046 4.4072445,11.997799 C4.4072445,9.97524567 5.1992238,8.06196352 6.63648124,6.62874972 C8.0690815,5.19683062 9.97257439,4.40681521 12.0025873,4.40681521 C12.0900388,4.40681521 12.3027167,4.40681521 12.4007762,4.41199394 L12.4007762,3.632336 C12.2962484,3.62715727 12.097542,3.62068385 12.0025873,3.62068385 Z M12.4010349,7.61270861 L11.5976714,7.61270861 L11.5976714,16.3872914 L14.3849935,16.3872914 L14.3849935,15.5983117 L12.4010349,15.5983117 L12.4010349,7.61270861 Z M8.80672704,7.607012 C8.14359638,7.607012 7.60905563,8.14870726 7.60905563,8.80821865 C7.60905563,9.46773003 8.14359638,10.0068359 8.80672704,10.0068359 C9.4698577,10.0068359 10.0043984,9.46721216 10.0043984,8.80821865 C10.0043984,8.14870726 9.4698577,7.607012 8.80672704,7.607012 Z"/>
</svg>
