<svg xmlns="http://www.w3.org/2000/svg" width="24" height="24" viewBox="0 0 24 24">
  <path fill="#1B1D22" fill-rule="evenodd" d="M18.3965746,2 C20.3937723,2 22.0138768,3.64803731 22,5.64523506 L22,5.64523506 L22,18.3826081 C22,20.3798059 20.3518731,21.9999104 18.3546753,21.9999104 L18.3546753,21.9999104 L5.61730223,21.9999104 C3.62010447,21.9999104 2,20.3518731 2,18.3546753 L2,18.3546753 L2,5.61730223 C2,3.62010447 3.64803731,2 5.64523506,2 L5.64523506,2 Z M11.9720224,5.21227611 C7.94969401,5.21227611 4.68155223,7.8658955 4.68155223,11.1200709 C4.68155223,14.0390522 7.27930595,16.4971417 10.7709104,16.9580335 C11.0083395,17.0138992 11.3295671,17.1116641 11.4133656,17.3211604 C11.4831977,17.5027238 11.4552649,17.7960186 11.4412985,17.977582 C11.4412985,17.977582 11.3575,18.4943395 11.3435335,18.6060708 C11.3156007,18.7876343 11.2038694,19.3323246 11.9720224,18.9971305 C12.7271721,18.6869797 15.9300487,16.6712321 17.5328339,14.9486549 L17.6982537,14.7653059 C18.745735,13.6060932 19.2624925,12.4329141 19.2624925,11.1200709 C19.2624925,7.8658955 15.9943507,5.21227611 11.9720224,5.21227611 Z M14.0111194,9.55583206 C14.0949179,9.55583206 14.1507835,9.61169773 14.1507835,9.69549624 L14.1507835,9.69549624 L14.1507835,12.8519067 C14.1507835,12.9217388 14.0949179,12.9915709 14.0111194,12.9915709 L14.0111194,12.9915709 L13.396597,12.9915709 L13.396597,12.9915709 L13.3546977,12.9496716 L11.9021903,10.9804067 L11.9021903,12.8938059 C11.9021903,12.963638 11.8463246,13.0334701 11.7625261,13.0334701 L11.7625261,13.0334701 L11.2457686,13.0334701 C11.1759365,13.0334701 11.1061044,12.9776044 11.1061044,12.8938059 L11.1061044,12.8938059 L11.1061044,9.72342908 C11.1061044,9.65359699 11.1619701,9.5837649 11.2457686,9.5837649 L11.2457686,9.5837649 L11.8742574,9.5837649 L11.8742574,9.5837649 L11.8840856,9.59359312 C11.8882238,9.59773132 11.8882238,9.59773132 11.8882238,9.59773132 L11.8882238,9.59773132 L11.9021903,9.61169773 L13.3546977,11.5809627 L13.3546977,9.69549624 C13.3546977,9.62566415 13.4105634,9.55583206 13.4943619,9.55583206 L13.4943619,9.55583206 Z M10.4915821,9.55583206 C10.5753806,9.55583206 10.6312462,9.61169773 10.6312462,9.69549624 L10.6312462,9.69549624 L10.6312462,12.8658731 C10.6312462,12.9357052 10.5753806,13.0055373 10.4915821,13.0055373 L10.4915821,13.0055373 L9.9748246,13.0055373 C9.90499251,13.0055373 9.83516042,12.9496716 9.83516042,12.8658731 L9.83516042,12.8658731 L9.83516042,9.69549624 C9.83516042,9.62566415 9.89102609,9.55583206 9.9748246,9.55583206 L9.9748246,9.55583206 Z M7.72623132,9.55583206 C7.79606341,9.55583206 7.8658955,9.61169773 7.8658955,9.69549624 L7.8658955,9.69549624 L7.8658955,12.2094515 L9.26253729,12.2094515 C9.33236938,12.2094515 9.40220146,12.2792835 9.40220146,12.3491156 L9.40220146,12.3491156 L9.40220146,12.8658731 C9.40220146,12.9357052 9.34633579,13.0055373 9.26253729,13.0055373 L9.26253729,13.0055373 L7.20947386,13.0055373 L7.17171281,13.0008818 C7.14895272,12.9946745 7.13033083,12.9822599 7.11170894,12.963638 L7.11170894,12.963638 L7.08843157,12.9351879 C7.07601698,12.9155315 7.06980968,12.8938059 7.06980968,12.8658731 L7.06980968,12.8658731 L7.06980968,9.69549624 C7.06980968,9.62566415 7.12567535,9.55583206 7.20947386,9.55583206 L7.20947386,9.55583206 Z M16.8323358,9.55583206 C16.9021679,9.55583206 16.9719999,9.61169773 16.9719999,9.69549624 L16.9719999,9.69549624 L16.9719999,10.2122537 C16.9719999,10.2820858 16.9161343,10.3519179 16.8323358,10.3519179 L16.8323358,10.3519179 L15.4496604,10.3519179 L15.4496604,10.8826418 L16.8323358,10.8826418 C16.9021679,10.8826418 16.9719999,10.9385074 16.9719999,11.0223059 L16.9719999,11.0223059 L16.9719999,11.5390634 C16.9719999,11.6088955 16.9161343,11.6787276 16.8323358,11.6787276 L16.8323358,11.6787276 L15.4496604,11.6787276 L15.4496604,12.2094515 L16.8323358,12.2094515 C16.9021679,12.2094515 16.9719999,12.2653171 16.9719999,12.3491156 L16.9719999,12.3491156 L16.9719999,12.8658731 C16.9719999,12.9357052 16.9161343,13.0055373 16.8323358,13.0055373 L16.8323358,13.0055373 L14.7932388,13.0055373 L14.7554777,13.0008818 C14.7327176,12.9946745 14.7140957,12.9822599 14.6954738,12.963638 L14.6954738,12.963638 L14.6721965,12.9351879 C14.6597819,12.9155315 14.6535746,12.8938059 14.6535746,12.8658731 L14.6535746,12.8658731 L14.6535746,9.69549624 L14.6582301,9.65773518 C14.6644373,9.6349751 14.6768519,9.61635321 14.6954738,9.59773132 L14.6954738,9.59773132 L14.7239239,9.57445395 C14.7435804,9.56203936 14.7653059,9.55583206 14.7932388,9.55583206 L14.7932388,9.55583206 Z"/>
</svg>
