<svg xmlns="http://www.w3.org/2000/svg" width="24" height="24" viewBox="0 0 24 24">
  <path fill="#1B1D22" fill-rule="evenodd" d="M20.5220366,2 C21.3382835,2 22,2.64137682 22,3.43267548 L22,3.43267548 L22,20.5673245 C22,21.3583559 21.3382835,22 20.5220366,22 L20.5220366,22 L3.4779634,22 C2.66168956,22 2,21.3583559 2,20.5673245 L2,20.5673245 L2,3.43267548 C2,2.64137682 2.66168956,2 3.4779634,2 L3.4779634,2 Z M6.55214127,15.6078809 L6.53250896,15.6078809 C5.51875558,15.6078809 4.86322465,16.3057692 4.86322465,17.1779279 C4.86322465,18.0697189 5.53884508,18.7482438 6.57217698,18.7482438 C7.60561645,18.7482438 8.24164954,18.0697189 8.26128186,17.1779279 C8.26128186,16.3057692 7.60561645,15.6078809 6.55219505,15.6078809 L6.55214127,15.6078809 Z M12.7549296,5.27859594 L9.73413548,5.27859594 C9.73413548,5.27859594 9.77385729,13.5142159 9.73413548,14.3670113 L9.73413548,14.3670113 L12.7550103,14.3670113 L12.755,13.08 L12.7938512,13.1394367 C13.1821015,13.7233453 13.8538558,14.4981862 15.2507419,14.5742105 L15.4773933,14.5802773 C17.4648555,14.5802773 18.955163,13.2813176 18.955163,10.4897643 L18.955163,10.4897643 L18.955163,5.27859594 L15.934611,5.27859594 L15.934611,10.1406857 C15.934611,11.3624609 15.4973483,12.1958928 14.4042589,12.1958928 C13.5697512,12.1958928 13.0727041,11.6338171 12.8543283,11.0911047 C12.7745619,10.8969331 12.7549296,10.6255769 12.7549296,10.3539517 L12.7549296,10.3539517 L12.7549296,5.27859594 Z M8.062619,5.27859594 L5.041798,5.27859594 L5.041798,14.3670113 L8.062619,14.3670113 L8.062619,5.27859594 Z" transform="matrix(1 0 0 -1 0 24)"/>
</svg>
