<svg xmlns="http://www.w3.org/2000/svg" width="24" height="24" viewBox="0 0 24 24">
  <path fill="#1B1D22" fill-rule="evenodd" d="M10.8267301,6.58621734 C10.6114912,6.60916981 10.6857772,6.80717058 10.5659672,6.81145631 C10.4479667,6.81578966 10.4720144,6.5593601 10.8267301,6.58621734 L10.8267301,6.58621734 Z M11.4755897,6.61888414 C11.6850667,6.56507441 11.686162,6.77597998 11.8005434,6.73759888 C11.9117343,6.70031302 11.7987815,6.46964547 11.4755897,6.61888414 L11.4755897,6.61888414 Z M18.6948558,20.43289 C18.0478057,20.7582246 17.2038024,21.4809893 16.8881821,21.7804666 C16.6561336,22.0025151 15.6837489,22.1126584 15.1435563,21.8346573 C14.5033158,21.505037 14.8429837,20.9906541 13.8544085,20.9663206 C13.3630732,20.9548444 12.8852619,20.950511 12.4064505,20.956273 C11.9828298,20.9619873 11.5595901,20.9749397 11.1277313,20.9975112 C9.6434398,21.010416 9.49820114,21.9809912 8.55272129,21.9454673 C7.90562355,21.9214672 7.08895372,21.4110366 5.6864721,21.1172736 C4.70084924,20.9120823 3.75460748,20.8633202 3.55194003,20.4271757 C3.34960591,19.9924597 3.80160766,19.5049816 3.83170301,19.0716942 C3.86860792,18.5067873 3.40379659,17.7384986 3.74736935,17.4407832 C4.03108474,17.194306 4.65270619,17.3751163 5.05337441,17.1513059 C5.4794713,16.914924 5.6505672,16.7180185 5.6505672,16.1990165 C5.80732971,16.7291614 5.64342431,17.1684964 5.29118485,17.3837353 C5.08170785,17.5103549 4.69218253,17.5774027 4.37189558,17.5447836 C4.11827555,17.5207835 3.96117971,17.5619741 3.88408417,17.6585459 C3.78579807,17.7840702 3.81736962,18.0035949 3.94108439,18.2959293 C4.06556106,18.5882638 4.21513307,18.7736931 4.19503775,19.1313135 C4.17494244,19.4892673 3.78146472,19.9142689 3.84427449,20.2152225 C3.86865554,20.3307467 3.98232264,20.4272233 4.25494275,20.5043188 C4.70689688,20.6313193 5.51356667,20.7464626 6.30952213,20.9404634 C7.1943827,21.1575118 8.10795766,21.5664182 8.67572176,21.4878465 C10.373395,21.2514646 9.40529602,19.4307909 9.13058067,18.9978368 C7.69762274,16.7420662 6.75000002,15.2653938 5.99137804,15.8514913 C5.79337727,16.0039205 5.78585344,15.4676803 5.79447252,15.2611081 C5.82713931,14.5197242 6.20375981,14.2603423 6.42757021,13.6832448 C6.84652421,12.6025263 7.17323976,11.364712 7.82143274,10.7248048 C8.30386318,10.1075167 9.05638991,9.0913699 9.20058094,8.55512973 C9.07934238,7.3890776 9.04205652,6.16164427 9.02334216,5.08668773 C9.00505637,3.94320711 9.18619993,2.93996513 10.4774906,2.23839099 C10.7923966,2.06729509 11.2016363,2.00453294 11.6353047,2.00024721 C12.4107362,1.99162813 13.2658348,2.20862897 13.8121226,2.61358292 C14.6830307,3.25920447 15.2303662,4.63335264 15.1665088,5.62154694 C15.1148419,6.38231179 15.2518901,7.17964821 15.4957958,7.99927043 C15.7877493,8.97270277 16.2497511,9.65708638 16.9836111,10.4354227 C17.8680907,11.3733787 18.5564267,13.2213383 18.7501417,14.3917238 C18.9327139,15.4850137 18.6949034,16.1607782 18.4549501,16.194826 C18.0977106,16.2475405 17.8749479,17.382402 16.7558483,17.3296875 C16.0417027,17.2952588 15.97175,16.8734476 15.7737969,16.5140653 C15.4556052,15.939444 15.1320801,16.119159 15.0022224,16.7181613 C14.9351746,17.0244482 14.9839367,17.4638309 15.0822228,17.8056893 C15.2816521,18.5058349 15.2131756,19.1700756 15.0940799,19.9753168 C14.8656029,21.5208942 16.1740841,21.8132287 17.0568018,21.0786544 C17.92771,20.3534135 18.1142345,20.2378892 19.2164769,19.8616497 C20.8785785,19.2924094 20.3201478,18.7891693 19.4262872,18.4885968 C18.6249984,18.2192148 18.5919982,16.8651619 18.8789517,16.60978 C18.9428091,18.0638808 19.6996216,18.2747864 20.0206704,18.4731681 C21.3957234,19.3266952 19.5011446,20.0268408 18.6948558,20.43289 L18.6948558,20.43289 Z M14.9936034,16.1735402 C15.1449373,15.9938728 15.3232237,15.9737775 15.5581294,15.9694441 C15.5939866,15.083155 16.9738491,15.148441 17.4258033,15.5192995 C17.4258033,15.3138226 16.9921825,15.1297742 16.8185628,15.0429644 C17.1194687,14.0422462 16.9781825,13.6401494 16.7787531,12.6950029 C16.6273716,11.9737144 15.9702262,11.0030916 15.4555575,10.6993285 C15.5854152,10.8129956 15.832178,11.1440921 16.092941,11.6297131 C16.5420379,12.4658115 16.9853254,13.701483 16.6901337,14.7391537 C16.5764666,15.1354885 16.3167513,15.1853935 16.1385126,15.2054412 C15.3472238,15.2879177 15.8124161,14.2703423 15.483891,12.8686226 C15.1180324,11.3104737 14.7428405,11.1935685 14.6485544,11.0712823 C14.1951717,9.04398876 13.6908364,9.24632288 13.5481216,8.48089135 C13.4200735,7.80365063 14.1384572,7.24345798 13.1617867,7.05402868 C12.8640713,6.99555226 12.438022,6.69355109 12.2679738,6.6720272 C12.099735,6.64907473 12.0172109,5.55435621 12.634499,5.50987984 C13.2517871,5.46430824 13.3697876,6.20716826 13.2485966,6.49950272 C13.0731674,6.78898003 13.2615014,6.89726617 13.5667407,6.80298009 C13.8164083,6.72621789 13.6553601,6.07588204 13.7148841,5.97945309 C13.5538359,5.04830663 13.1650249,4.91416325 12.7600709,4.83597247 C11.2231126,4.95397293 11.9132105,6.65631285 11.7575432,6.49235984 C11.5398281,6.26135894 10.8852065,6.47945503 10.8884446,6.3313116 C10.9024447,5.46326062 10.6115388,4.96006819 10.2108706,4.94963958 C9.76467836,4.93673477 9.58067765,5.56159433 9.55372516,5.91340522 C9.52824887,6.25131129 9.7546307,6.95540925 9.91991706,6.90159952 C10.0282508,6.86574224 10.2136801,6.64802711 10.015346,6.64907473 C9.91277417,6.65050331 9.75782119,6.40983571 9.74167827,6.11712029 C9.72624964,5.82516678 9.83315482,5.53140374 10.2122991,5.54683237 C10.6570628,5.56407053 10.6527294,6.43278818 10.6043007,6.4665026 C10.4619192,6.56512203 10.279347,6.75631324 10.2596327,6.78893242 C10.1182988,7.02569524 9.83458339,7.08412403 9.73058299,7.18817206 C9.53258222,7.3861252 9.49239159,7.60993559 9.64086836,7.69569783 C10.149537,7.98765134 9.9841554,8.31260498 10.6957772,8.34274795 C11.1631123,8.36108136 11.5150185,8.26993815 11.8331626,8.1727473 C12.0810207,8.09779462 12.8769285,7.9281273 13.0447863,7.63584046 C13.1175961,7.51174474 13.2090726,7.50741139 13.2700253,7.54293533 C13.3768828,7.60460224 13.3998829,7.81122209 13.124739,7.88512713 C12.7312613,7.99203231 12.3338312,8.20184265 11.9855441,8.341367 C11.6379713,8.48231992 11.5267804,8.53651061 11.198922,8.59674894 C10.4600144,8.72908278 9.91448847,8.32989076 10.4102047,8.80908309 C10.574491,8.96875038 10.7326345,9.06841743 11.1576838,9.05122689 C12.0884969,9.01427436 13.1315009,7.89660337 13.2344537,8.39698626 C13.2559776,8.49955808 12.939643,8.63908243 12.6928802,8.76174958 C11.8202101,9.19113219 11.2057792,10.0390402 10.6469199,9.74561053 C10.1469179,9.48199046 9.64943982,8.24165232 9.65801128,8.79727352 C9.67201134,9.65413398 8.5284831,10.416756 9.05467561,11.3919979 C8.71396001,11.4848554 7.93700462,13.1240522 7.82548038,13.9777221 C7.76452776,14.4612002 7.87181389,15.0684883 7.75590868,15.4078229 C7.58766993,15.8981582 6.8237146,14.9404402 7.06757268,13.7668166 C7.11138238,13.5601967 7.07442985,13.5164346 7.01914392,13.6161493 C6.70857129,14.164961 6.87923862,14.9304401 7.12423957,15.4677279 C7.2315257,15.7001574 7.48224095,15.8027292 7.66762262,16.0096824 C8.06790989,16.4573032 9.59953486,17.5933076 9.87715499,17.8655467 C10.2135372,18.1962147 10.1192512,18.9548367 9.4040103,19.0273131 C9.77058315,19.7188396 10.1278226,19.7844589 10.1224417,20.9150823 C10.5371099,20.6923196 10.3702998,20.2052224 10.1967277,19.8842212 C10.0754891,19.6647442 9.91696467,19.5650295 9.95139337,19.5137436 C9.97725061,19.4750291 10.1906324,19.2913618 10.3190615,19.4351718 C10.6967772,19.8584592 11.4098276,19.9341738 12.1766877,19.8387448 C12.9421192,19.741554 13.76317,19.4739815 14.1426477,18.8638363 C14.3205531,18.5772161 14.4489822,18.4757396 14.5314587,18.5259302 C14.6128876,18.5772161 14.6484116,18.7795026 14.6397449,19.1044563 C14.6300781,19.4652672 14.4790776,19.8400782 14.3850772,20.1396031 C14.2792196,20.4789378 14.2466481,20.7196054 14.577316,20.7325102 C14.6756021,20.1051268 14.8481742,19.4878387 14.8979839,18.8637887 C14.9537461,18.1537859 14.4394107,16.8320665 14.9936034,16.1735402 L14.9936034,16.1735402 Z M10.3020138,6.09307258 C10.2765375,6.23297788 10.2865851,6.32012108 10.3834427,6.32012108 C10.3992046,6.32012108 10.4160618,6.31688297 10.4221571,6.28140664 C10.4687763,6.00340556 10.3249662,5.80111907 10.2664422,5.78497615 C10.1298226,5.75088078 10.1470132,5.94602439 10.2180134,5.93059576 C10.2610612,5.92192906 10.3192043,5.99331029 10.3020138,6.09307258 L10.3020138,6.09307258 Z M12.8285474,5.7110711 C12.6886421,5.72397591 12.7288327,5.79354761 12.7984044,5.81364293 C12.8895,5.84088113 12.9752622,5.99583411 12.9949766,6.16445381 C12.9964052,6.17988244 13.1118818,6.14007276 13.1118818,6.10312024 C13.1205485,5.83335729 12.8895,5.70564251 12.8285474,5.7110711 L12.8285474,5.7110711 Z"/>
</svg>
