<svg xmlns="http://www.w3.org/2000/svg" width="24" height="24" viewBox="0 0 24 24">
  <path fill="#1B1D22" fill-rule="evenodd" d="M5.997,8 L17.997,8 L17.997,6 L5.997,6 L5.997,8 Z M5.997,11 L17.997,11 L17.997,9 L5.997,9 L5.997,11 Z M5.997,14 L13.997,14 L13.997,12 L5.997,12 L5.997,14 Z M19.997,2 L4.008,2 C2.908,2 2.008,2.9 2.007,4 L2.001,15.236 L1.99999917,16.008 C1.999,17.116 2.898,18.013 4.005,18.008 L5.997,18 L5.997,22 L9.997,18 L19.997,18 C21.097,18 21.997,17.1 21.997,16 L21.997,4 C21.997,2.9 21.097,2 19.997,2 L19.997,2 Z"/>
</svg>
