<svg xmlns="http://www.w3.org/2000/svg" width="24" height="24" viewBox="0 0 24 24">
  <path fill="#1B1D22" fill-rule="evenodd" d="M12,2 C17.52,2 22,6.48 22,12 C22,17.52 17.52,22 12,22 C6.48,22 2,17.52 2,12 C2,6.48 6.48,2 12,2 Z M7,10.25 C6.0375,10.25 5.25,11.0375 5.25,12 C5.25,12.9625 6.0375,13.75 7,13.75 C7.9625,13.75 8.75,12.9625 8.75,12 C8.75,11.0375 7.9625,10.25 7,10.25 Z M17,10.25 C16.0375,10.25 15.25,11.0375 15.25,12 C15.25,12.9625 16.0375,13.75 17,13.75 C17.9625,13.75 18.75,12.9625 18.75,12 C18.75,11.0375 17.9625,10.25 17,10.25 Z M12,10.25 C11.0375,10.25 10.25,11.0375 10.25,12 C10.25,12.9625 11.0375,13.75 12,13.75 C12.9625,13.75 13.75,12.9625 13.75,12 C13.75,11.0375 12.9625,10.25 12,10.25 Z"/>
</svg>
