<svg xmlns="http://www.w3.org/2000/svg" width="24" height="24" viewBox="0 0 24 24">
  <path fill="#1B1D22" fill-rule="evenodd" d="M16.7711,2.0003 C19.5869,2.0003 21.8827081,4.22571312 21.9957387,7.01468052 L22.0001,7.2303 L22.0001,16.7703 C22.0001,19.5861 19.7746869,21.8828587 16.9866463,21.9959368 L16.7711,22.0003 L13.7161,22.0003 C13.6934333,22.0003 13.6738778,21.9878556 13.6633593,21.9694852 L13.6551,21.9383 L13.6551,2.0623 C13.6551,2.03963333 13.6671,2.01963333 13.6851741,2.00881852 L13.7161,2.0003 L16.7711,2.0003 Z M11.548,2 C11.5713333,2 11.5911111,2.01244444 11.6017037,2.03081481 L11.61,2.062 L11.61,21.938 C11.61,21.9606667 11.598,21.9806667 11.5796296,21.9914815 L11.548,22 L7.23,22 C4.413225,22 2.1173925,19.7745869 2.00436136,16.9865463 L2,16.771 L2,7.23 C2,4.4142 4.22541313,2.11744125 7.01438052,2.00436319 L7.23,2 L11.548,2 Z M9.897,3.714 L7.23,3.714 C5.35563333,3.714 3.81953556,5.18855333 3.71921167,7.03744511 L3.714,7.23 L3.714,16.771 C3.714,18.6444 5.18761889,20.1804656 7.03735167,20.2807884 L7.23,20.286 L9.897,20.286 L9.897,3.714 Z M17.5651,11.0393 C16.4751,11.0393 15.5911,11.9233 15.5911,13.0133 C15.5911,14.1033 16.4751,14.9873 17.5651,14.9873 C18.6551,14.9873 19.5391,14.1033 19.5391,13.0133 C19.5391,11.9233 18.6551,11.0393 17.5651,11.0393 Z M7.038,6.0783 C8.08,6.0783 8.925,6.9233 8.925,7.9653 C8.925,9.0073 8.08,9.8523 7.038,9.8523 C5.996,9.8523 5.152,9.0073 5.152,7.9653 C5.152,6.9233 5.996,6.0783 7.038,6.0783 Z"/>
</svg>
