<svg xmlns="http://www.w3.org/2000/svg" width="24" height="24" viewBox="0 0 24 24">
  <path fill="#1B1D22" fill-rule="evenodd" d="M3.081,2 L15.964,14.793 L17.766,16.595 L22,20.829 L20.828,22 L19.218,20.389 C18.936,20.574 18.599,20.684 18.237,20.684 L18.237,20.684 L5.624,20.684 C4.634,20.684 3.823,19.873 3.823,18.882 L3.823,18.882 L3.823,6.269 C3.823,5.907 3.931,5.57 4.117,5.288 L4.117,5.288 L2.901,4.072 L2,3.171 L3.081,2 Z M13.733,15.278 L7.426,15.278 L7.426,17.08 L13.733,17.08 L13.733,15.278 Z M11.9311,2.6653 C13.1021,2.6653 14.0931,3.4223 14.4711,4.4673 L14.4711,4.4673 L18.2371,4.4673 C19.2281,4.4673 20.0381,5.2783 20.0381,6.2693 L20.0381,6.2693 L20.0381,16.5993 L18.8611,15.4213 L17.0591,13.6193 L16.4351,13.0003 L16.4351,11.6743 L15.1001,11.6743 L13.2851,9.8723 L16.4351,9.8723 L16.4351,8.0713 L11.4711,8.0713 L7.8421,4.4673 L9.3901,4.4673 C9.7681,3.4223 10.7591,2.6653 11.9311,2.6653 Z M10.503,11.674 L7.426,11.674 L7.426,13.476 L12.305,13.476 L10.503,11.674 Z M7.426,8.597 L7.426,9.873 L8.702,9.873 L7.426,8.597 Z M11.9311,4.4673 C11.4351,4.4673 11.0301,4.8723 11.0301,5.3683 C11.0301,5.8643 11.4351,6.2693 11.9311,6.2693 C12.4261,6.2693 12.8321,5.8643 12.8321,5.3683 C12.8321,4.8723 12.4261,4.4673 11.9311,4.4673 Z"/>
</svg>
