<svg xmlns="http://www.w3.org/2000/svg" width="24" height="24" viewBox="0 0 24 24">
  <path fill="#1B1D22" fill-rule="evenodd" d="M7.40690822,4.205 L5.98156971,2.775 C3.58939318,4.605 2.01454363,7.425 1.875,10.625 L3.86848044,10.625 C4.01799147,7.975 5.37355817,5.655 7.40690822,4.205 L7.40690822,4.205 Z M19.7565196,10.625 L21.75,10.625 C21.600489,7.425 20.0256394,4.605 17.6434303,2.775 L16.2280592,4.205 C18.2414744,5.655 19.6070085,7.975 19.7565196,10.625 Z M17.7929413,11.125 C17.7929413,8.055 16.1582874,5.485 13.3076103,4.805 L13.3076103,4.125 C13.3076103,3.295 12.6397944,2.625 11.8125,2.625 C10.9852056,2.625 10.3173897,3.295 10.3173897,4.125 L10.3173897,4.805 C7.45674524,5.485 5.83205868,8.045 5.83205868,11.125 L5.83205868,16.125 L3.83857823,18.125 L3.83857823,19.125 L19.7864218,19.125 L19.7864218,18.125 L17.7929413,16.125 L17.7929413,11.125 Z M11.8125,22.125 C11.9520436,22.125 12.0816199,22.115 12.2111961,22.085 C12.8590772,21.945 13.3873495,21.505 13.646502,20.905 C13.746176,20.665 13.796013,20.405 13.796013,20.125 L9.80905216,20.125 C9.81901956,21.225 10.7061184,22.125 11.8125,22.125 Z"/>
</svg>
