<svg xmlns="http://www.w3.org/2000/svg" width="24" height="24" viewBox="0 0 24 24">
  <path fill="#1B1D22" fill-rule="evenodd" d="M4.04340188,11.0967044 C4.04340188,11.0967044 5.85162832,8.47574477 9.46226806,8.20484846 L9.46226806,7.25402424 C5.46317423,7.5692582 2,10.8962613 2,10.8962613 C2,10.8962613 3.96133411,16.4663463 9.46226806,16.9763132 L9.46226806,15.9655324 C5.42555983,15.4666499 4.04340188,11.0967044 4.04340188,11.0967044 L4.04340188,11.0967044 Z M9.46226806,13.955559 L9.46226806,14.8812754 C6.41131338,14.3470403 5.56447663,11.2316487 5.56447663,11.2316487 C5.56447663,11.2316487 7.02930076,9.63742475 9.46226806,9.37912436 L9.46226806,10.3947756 C9.46038734,10.3947756 9.45919052,10.3942718 9.45756626,10.3942718 C8.18089958,10.2436245 7.18326331,11.4154652 7.18326331,11.4154652 C7.18326331,11.4154652 7.74217898,13.3879027 9.46226806,13.955559 L9.46226806,13.955559 Z M9.46226806,5.5 L9.46226806,7.25402424 C9.57964206,7.2448712 9.69710155,7.23764954 9.81498848,7.23336692 C14.3618847,7.0829716 17.324189,10.8962613 17.324189,10.8962613 C17.324189,10.8962613 13.9215398,14.9604617 10.3768962,14.9604617 C10.0521301,14.9604617 9.74805196,14.9309873 9.46226806,14.8812754 L9.46226806,15.9655324 C9.70667613,15.9960985 9.95980389,16.0140687 10.2239595,16.0140687 C13.5227417,16.0140687 15.9083491,14.3593843 18.2183003,12.4008023 C18.6010267,12.7020967 20.169034,13.4348436 20.4915774,13.7560396 C18.2948968,15.562127 13.1764329,17.0177958 10.2747389,17.0177958 C9.99511013,17.0177958 9.72608173,17.0011692 9.46226806,16.9763132 L9.46226806,18.5 L22,18.5 L22,5.5 L9.46226806,5.5 Z M9.46226806,9.37912436 L9.46226806,8.20484846 C9.57827427,8.1967031 9.69556278,8.19065706 9.81498848,8.18696225 C13.0846196,8.08594295 15.2297513,10.946561 15.2297513,10.946561 C15.2297513,10.946561 12.9128757,14.1074658 10.4288725,14.1074658 C10.0711083,14.1074658 9.75087304,14.0507842 9.46226806,13.955559 L9.46226806,10.3947756 C10.7350878,10.5457587 10.9910367,11.0981319 11.7564896,12.3510904 L13.4584553,10.9414386 C13.4584553,10.9414386 12.216069,9.34091672 10.1218022,9.34091672 C9.89389322,9.34091672 9.67607169,9.35661964 9.46226806,9.37912436 L9.46226806,9.37912436 Z"/>
</svg>
