<svg xmlns="http://www.w3.org/2000/svg" width="24" height="24" viewBox="0 0 24 24">
  <path fill="#1B1D22" fill-rule="evenodd" d="M12.5909091,10.1666667 C11.8454545,8.03083333 9.82727273,6.5 7.45454545,6.5 C4.44545455,6.5 2,8.96583333 2,12 C2,15.0341667 4.44545455,17.5 7.45454545,17.5 C9.82727273,17.5 11.8454545,15.9691667 12.5909091,13.8333333 L16.5454545,13.8333333 L16.5454545,17.5 L20.1818182,17.5 L20.1818182,13.8333333 L22,13.8333333 L22,10.1666667 L12.5909091,10.1666667 Z M7.45454545,13.8333333 C6.45454545,13.8333333 5.63636364,13.0083333 5.63636364,12 C5.63636364,10.9916667 6.45454545,10.1666667 7.45454545,10.1666667 C8.45454545,10.1666667 9.27272727,10.9916667 9.27272727,12 C9.27272727,13.0083333 8.45454545,13.8333333 7.45454545,13.8333333 Z"/>
</svg>
