<svg xmlns="http://www.w3.org/2000/svg" width="24" height="24" viewBox="0 0 24 24">
  <path fill="#1B1D22" fill-rule="evenodd" d="M7.47493133,0.5 C7.66798307,0.5 7.95756069,0.539619931 8.34366417,0.618859792 C9.83962211,0.992179986 10.9498627,2.29043025 10.9498627,3.84816317 C10.9498627,5.40589608 9.83962211,6.70414635 8.34366417,7.07746655 L8.34366417,7.07746655 L8.34366417,8.47927818 C8.34366417,8.71868859 8.36915424,8.9523246 8.41770231,9.177656 L12,8 C13.1836142,8.36920059 14.2522226,8.70472787 15.2058251,9.00658186 C15.2343613,8.83480243 15.2490913,8.65866119 15.2490913,8.47927818 L15.2490913,8.47927818 L15.2625343,6.78191527 L12.9355714,6.78191527 L17,3.21674153 L16.986557,8.47927818 C16.986557,8.84187118 16.9464932,9.19559901 16.8704059,9.53656876 C19.4352073,10.3595082 20.8433739,10.8436164 21.0950446,10.9891068 C21.6665625,11.3195 22,11.9335365 22,12.5946328 L22,12.5946328 L22,21.6110964 C22,22.6500885 21.1429911,23.5 20.0952679,23.5 L20.0952679,23.5 L3.90473214,23.5 C2.85700893,23.5 2,22.6500885 2,21.6110964 L2,21.6110964 L2,12.5946328 C2,11.9335365 2.38084821,11.3195 2.90495536,10.9891068 L2.90495536,10.9891068 L6.76463646,9.72164069 C6.66112648,9.32419755 6.6061985,8.90793275 6.6061985,8.47927818 L6.6061985,8.47927818 L6.6061985,7.07746655 C5.10937183,6.70414635 4,5.40589608 4,3.84816317 C4,2.29043025 5.10937183,0.992179986 6.6061985,0.618859792 C6.99230198,0.539619931 7.28187959,0.5 7.47493133,0.5 Z M11.75,10 L9.857,10.556 L9.85,10.55 L7.15,11.35 L7.151,11.351 L4,12.277763 L11.75,17.2360964 L19.5,12.277763 L16.0995618,11.2794234 C15.1625717,12.6189672 13.5735442,13.5015229 11.77416,13.5015229 C10.5823052,13.5015229 9.4903791,13.1143179 8.62040084,12.4635785 L10.7384044,11.6742296 C11.0643264,11.7737611 11.4120867,11.8274413 11.77416,11.8274413 C12.778282,11.8274413 13.6845332,11.4145893 14.3196085,10.7558679 L11.75,10 Z M7.45518246,2.17408158 C6.5024159,2.17408158 5.72759123,2.92490718 5.72759123,3.84816317 C5.72759123,4.77141916 6.5024159,5.52224475 7.45518246,5.52224475 C8.40794903,5.52224475 9.1827737,4.77141916 9.1827737,3.84816317 C9.1827737,2.92490718 8.40794903,2.17408158 7.45518246,2.17408158 Z" transform="matrix(-1 0 0 1 24 0)"/>
</svg>
