<svg xmlns="http://www.w3.org/2000/svg" width="24" height="24" viewBox="0 0 24 24">
  <path fill="#1B1D22" fill-rule="evenodd" d="M15.3397436,3 C16.8089626,3 18,4.1314855 18,5.52724359 L18,5.52724359 L18,6 L15.999,6 L15.9999998,5 L4.99999976,5 L4.99999976,20 L9.999,20 L9.99999976,22 L5.66025641,22 C4.19103736,22 3,20.8685145 3,19.4727564 L3,19.4727564 L3,5.52724359 C3,4.1314855 4.19103736,3 5.66025641,3 L5.66025641,3 Z M18.9478018,8 C20.0811993,8 20.9999998,8.90951942 20.9999998,10.0314685 L20.9999998,10.0314685 L20.9999998,19.9685312 C20.9999998,21.0904802 20.0811993,22 18.9478018,22 L18.9478018,22 L14.0521975,22 C12.9188,22 11.9999998,21.0904802 11.9999998,19.9685312 L11.9999998,19.9685312 L11.9999998,10.0314685 C11.9999998,8.90951942 12.9188,8 14.0521975,8 L14.0521975,8 Z M18.9999998,10 L13.9999998,10 L13.9999998,20 L18.9999998,20 L18.9999998,10 Z"/>
</svg>
