<svg xmlns="http://www.w3.org/2000/svg" width="24" height="24" viewBox="0 0 24 24">
  <path fill="#1B1D22" fill-rule="evenodd" d="M13,6.5 C14.38,6.5 15.5,7.62 15.5,9 C15.5,9.74 15.17,10.39 14.67,10.85 L18.3,14.48 C19.28,12.62 20,10.68 20,9 C20,5.13 16.87,2 13,2 C11.02,2 9.24,2.83 7.96,4.15 L11.15,7.34 C11.61,6.82 12.26,6.5 13,6.5 Z M17.37,16.1 L12.74,11.47 L12.63,11.36 L4.27,3 L3,4.27 L6.18,7.45 C6.07,7.95 6,8.47 6,9 C6,14.25 13,22 13,22 C13,22 14.67,20.15 16.38,17.65 L19.73,21 L21,19.73 L17.37,16.1 Z"/>
</svg>
