<svg xmlns="http://www.w3.org/2000/svg" width="24" height="24" viewBox="0 0 24 24">
  <path fill="#1B1D22" fill-rule="evenodd" d="M9.66498433,4.5 C10.82684,4.7436149 12.2885294,5.23084469 14.0125732,5.79303291 C15.3993042,6.26152309 16.3362845,6.86119052 16.8609935,7.5732956 C17.4419214,8.24792146 17.7042759,9.25986026 17.7042759,10.5903724 C17.7042759,11.8646657 17.3294837,12.707948 16.6361183,13.1951778 C15.9614924,13.7011472 15.0619912,13.663668 14.0500524,13.1764382 L14.0500524,13.1764382 L14.0500524,8.32287989 C14.0500524,7.23598267 12.7757591,7.17976385 12.7944987,7.91060853 L12.7944987,7.91060853 L12.7944987,19.9789156 L9.66498433,19.0231957 Z M16.9546916,14.0197205 C18.079068,13.9822413 19.1097464,14.1696374 20.3090813,14.5631691 C21.3772389,14.9192217 21.9769063,15.3127534 21.9956459,15.8187228 C22.0518648,16.3621714 21.564635,16.7931824 20.4777378,17.1867142 L20.4777378,17.1867142 L19.9530287,17.4303291 L15.455523,19.0231957 L13.5815623,19.6978215 L13.5815623,17.8051212 L17.5918382,16.3621714 L18.2852037,16.0810773 C18.8848711,15.8749416 18.9223503,15.5376287 18.3226829,15.3877119 C17.5356194,15.1815762 16.6173786,15.5188891 16.6173786,15.5188891 L16.6173786,15.5188891 L13.5815623,16.5870467 L13.5815623,14.7318256 C14.6871991,14.3757731 15.9240132,14.0384601 16.9546916,14.0197205 Z M8.67178514,13.3076154 L8.67178514,15.2003158 L6.31059462,16.0435981 L5.59848954,16.3059526 C5.03630132,16.5120883 5.12999936,16.8306616 5.33613504,16.9618389 C5.33613504,16.9618389 6.02950051,17.3553706 7.37875223,16.8868804 L7.37875223,16.8868804 L8.67178514,16.3996506 L8.67178514,18.0299965 C7.0414393,18.2736114 5.46731229,18.1799133 3.91192488,17.767642 C2.71259001,17.4490687 2.05670376,17.0180577 2.00048493,16.4371299 C1.98174533,16.0435981 2.50645433,15.5938475 3.51839313,15.1628366 L3.51839313,15.1628366 L4.19301899,14.9004821 L8.07211771,13.5137511 L8.67178514,13.3076154 Z"/>
</svg>
