<svg xmlns="http://www.w3.org/2000/svg" width="24" height="24" viewBox="0 0 24 24">
  <path fill="#1B1D22" fill-rule="evenodd" d="M5.33333333,5.33333333 L10.3333333,5.33333333 L10.3333333,10.3333333 L5.33333333,10.3333333 L5.33333333,5.33333333 L5.33333333,5.33333333 Z M18.6666667,5.33333333 L18.6666667,10.3333333 L13.6666667,10.3333333 L13.6666667,5.33333333 L18.6666667,5.33333333 L18.6666667,5.33333333 Z M13.6666667,14.5 L15.3333333,14.5 L15.3333333,12.8333333 L13.6666667,12.8333333 L13.6666667,11.1666667 L15.3333333,11.1666667 L15.3333333,12.8333333 L17,12.8333333 L17,11.1666667 L18.6666667,11.1666667 L18.6666667,12.8333333 L17,12.8333333 L17,14.5 L18.6666667,14.5 L18.6666667,17 L17,17 L17,18.6666667 L15.3333333,18.6666667 L15.3333333,17 L12.8333333,17 L12.8333333,18.6666667 L11.1666667,18.6666667 L11.1666667,15.3333333 L13.6666667,15.3333333 L13.6666667,14.5 L13.6666667,14.5 Z M15.3333333,14.5 L15.3333333,17 L17,17 L17,14.5 L15.3333333,14.5 L15.3333333,14.5 Z M5.33333333,18.6666667 L5.33333333,13.6666667 L10.3333333,13.6666667 L10.3333333,18.6666667 L5.33333333,18.6666667 L5.33333333,18.6666667 Z M7,7 L7,8.66666667 L8.66666667,8.66666667 L8.66666667,7 L7,7 L7,7 Z M15.3333333,7 L15.3333333,8.66666667 L17,8.66666667 L17,7 L15.3333333,7 L15.3333333,7 Z M7,15.3333333 L7,17 L8.66666667,17 L8.66666667,15.3333333 L7,15.3333333 L7,15.3333333 Z M5.33333333,11.1666667 L7,11.1666667 L7,12.8333333 L5.33333333,12.8333333 L5.33333333,11.1666667 L5.33333333,11.1666667 Z M9.5,11.1666667 L12.8333333,11.1666667 L12.8333333,14.5 L11.1666667,14.5 L11.1666667,12.8333333 L9.5,12.8333333 L9.5,11.1666667 L9.5,11.1666667 Z M11.1666667,7 L12.8333333,7 L12.8333333,10.3333333 L11.1666667,10.3333333 L11.1666667,7 L11.1666667,7 Z M3.66666667,3.66666667 L3.66666667,7 L2,7 L2,3.66666667 C2,2.74619208 2.74619208,2 3.66666667,2 L7,2 L7,3.66666667 L3.66666667,3.66666667 L3.66666667,3.66666667 Z M20.3333333,2 C21.2538079,2 22,2.74619208 22,3.66666667 L22,7 L20.3333333,7 L20.3333333,3.66666667 L17,3.66666667 L17,2 L20.3333333,2 L20.3333333,2 Z M3.66666667,17 L3.66666667,20.3333333 L7,20.3333333 L7,22 L3.66666667,22 C2.74619208,22 2,21.2538079 2,20.3333333 L2,17 L3.66666667,17 L3.66666667,17 Z M20.3333333,20.3333333 L20.3333333,17 L22,17 L22,20.3333333 C22,21.2538079 21.2538079,22 20.3333333,22 L17,22 L17,20.3333333 L20.3333333,20.3333333 Z"/>
</svg>
