<svg xmlns="http://www.w3.org/2000/svg" width="24" height="24" viewBox="0 0 24 24">
  <path fill="#1B1D22" fill-rule="evenodd" d="M15,13.726013 C14.3,13.726013 13.8,13.125013 13.8,12.526013 C13.8,11.826013 14.4,11.326013 15,11.326013 C15.7,11.326013 16.2,11.926013 16.2,12.526013 C16.2,13.226013 15.7,13.726013 15,13.726013 M15.8,16.726013 C14,17.826013 10,17.826013 8.2,16.726013 C8,16.526013 7.9,16.226013 8.1,16.026013 C8.3,15.826013 8.6,15.726013 8.8,15.926013 C10,16.826013 14,16.826013 15.2,15.926013 C15.4,15.726013 15.7,15.826013 15.9,16.026013 C16.1,16.226013 16,16.526013 15.8,16.726013 M9,11.326013 C9.7,11.326013 10.2,11.926013 10.2,12.526013 C10.2,13.125013 9.7,13.726013 9,13.726013 C8.3,13.726013 7.8,13.226013 7.8,12.526013 C7.8,11.826013 8.3,11.326013 9,11.326013 M22,11.026013 C22,9.62601296 20.9,8.52601296 19.5,8.52601296 C18.9,8.52601296 18.3,8.72601296 17.9,9.12601296 C16.4,8.22601296 14.6,7.62601296 12.5,7.52601296 L13.6,3.52601296 L17,4.52601296 C17,5.63001296 17.896,6.52601296 19,6.52601296 C20.104,6.52601296 21,5.63001296 21,4.52601296 C21,3.42101296 20.104,2.52601296 19,2.52601296 C18.3,2.52601296 17.6,2.92601296 17.3,3.52601296 L13.3,2.52601296 C13,2.42601296 12.8,2.62601296 12.7,2.92601296 L11.5,7.52601296 C9.5,7.62601296 7.6,8.22601296 6.1,9.12601296 C5.7,8.72601296 5.1,8.52601296 4.5,8.52601296 C3.1,8.52601296 2,9.62601296 2,11.026013 C2,11.926013 2.4,12.625013 3.1,13.125013 L3,14.026013 C3,17.625013 7,20.526013 12,20.526013 C17,20.526013 21,17.625013 21,14.026013 L20.9,13.125013 C21.6,12.625013 22,11.926013 22,11.026013"/>
</svg>
