<svg xmlns="http://www.w3.org/2000/svg" width="24" height="24" viewBox="0 0 24 24">
  <path fill="#1B1D22" fill-rule="evenodd" d="M10.5393587,11.7872275 L10.5393587,22.0859275 L3.31905978,22.0859275 L3.31905978,11.7872275 L10.5393587,11.7872275 Z M20.4296909,11.7872275 L20.4296909,22.0859275 L13.209392,22.0859275 L13.209392,11.7872275 L20.4296909,11.7872275 Z M10.5393587,6.90419945 L10.5393587,10.7185328 L1.875,10.7185328 L1.875,6.90419945 L10.5393587,6.90419945 Z M21.8737507,6.90419945 L21.8737507,10.7185328 L13.209392,10.7185328 L13.209392,6.90419945 L21.8737507,6.90419945 Z M11.3731068,5.68290001 L11.3406038,5.68247214 C10.8498755,5.67449392 4.97972653,5.52586175 5.87210813,2.98697579 C6.80328893,0.337703484 11.3731068,5.68290001 11.3731068,5.68290001 Z M12.3567846,5.68290001 C12.3567846,5.68290001 16.9266024,0.337703484 17.8577832,2.98697579 C18.7501648,5.52586175 12.8800159,5.67449392 12.3892875,5.68247214 Z"/>
</svg>
