<svg xmlns="http://www.w3.org/2000/svg" width="24" height="24" viewBox="0 0 24 24">
  <path fill="#1B1D22" fill-rule="evenodd" d="M11.998,2 L11.696,2.154 L4.314,5.91 L4,6.07 L4,6.395 L4.017,16.777 L4.017,17.07 L4.285,17.235 L11.65,21.786 L11.998,22 L12.345,21.786 L19.724,17.235 L19.991,17.07 L19.992,16.776 L20,6.395 L20,6.07 L19.686,5.91 L12.3,2.153 L11.998,2 Z M19.383,6.395 L19.374,16.777 L17.688,17.818 L17.688,9.235 L12.002,12.086 L6.287,9.235 L6.287,17.799 L4.631,16.776 L4.616,6.395 L12.002,10.083 L19.383,6.395 Z"/>
</svg>
