<svg xmlns="http://www.w3.org/2000/svg" width="24" height="24" viewBox="0 0 24 24">
  <path fill="#1B1D22" fill-rule="evenodd" d="M19.4496885,12.786375 C19.4897826,12.468375 19.5198531,12.150375 19.5198531,11.8125 C19.5198531,11.474625 19.4897826,11.156625 19.4496885,10.838625 L21.564651,9.1989375 C21.7550978,9.049875 21.8052154,8.7815625 21.6849332,8.5629375 L19.6802294,5.1245625 C19.5599472,4.9059375 19.2893122,4.8264375 19.0687948,4.9059375 L16.5729386,5.8996875 C16.0517156,5.5021875 15.4903985,5.17425 14.8789639,4.9258125 L14.4980702,2.292375 C14.4679996,2.053875 14.2575057,1.875 14.0069177,1.875 L9.99751016,1.875 C9.74692218,1.875 9.53642829,2.053875 9.50635773,2.292375 L9.12546401,4.9258125 C8.51402936,5.17425 7.9527123,5.512125 7.43148931,5.8996875 L4.9356331,4.9059375 C4.70509217,4.8165 4.44448068,4.9059375 4.32419845,5.1245625 L2.31949466,8.5629375 C2.18918892,8.7815625 2.24933003,9.049875 2.43977689,9.1989375 L4.55473938,10.838625 C4.51464531,11.156625 4.48457475,11.4845625 4.48457475,11.8125 C4.48457475,12.1404375 4.51464531,12.468375 4.55473938,12.786375 L2.43977689,14.4260625 C2.24933003,14.575125 2.19921244,14.8434375 2.31949466,15.0620625 L4.32419845,18.5004375 C4.44448068,18.7190625 4.71511569,18.7985625 4.9356331,18.7190625 L7.43148931,17.7253125 C7.9527123,18.1228125 8.51402936,18.45075 9.12546401,18.6991875 L9.50635773,21.332625 C9.53642829,21.571125 9.74692218,21.75 9.99751016,21.75 L14.0069177,21.75 C14.2575057,21.75 14.4679996,21.571125 14.4980702,21.332625 L14.8789639,18.6991875 C15.4903985,18.45075 16.0517156,18.112875 16.5729386,17.7253125 L19.0687948,18.7190625 C19.2993357,18.8085 19.5599472,18.7190625 19.6802294,18.5004375 L21.6849332,15.0620625 C21.8052154,14.8434375 21.7550978,14.575125 21.564651,14.4260625 L19.4496885,12.786375 Z M12.0022139,15.290625 C10.0676748,15.290625 8.49398232,13.7304375 8.49398232,11.8125 C8.49398232,9.8945625 10.0676748,8.334375 12.0022139,8.334375 C13.9367531,8.334375 15.5104456,9.8945625 15.5104456,11.8125 C15.5104456,13.7304375 13.9367531,15.290625 12.0022139,15.290625 Z"/>
</svg>
