<svg xmlns="http://www.w3.org/2000/svg" width="24" height="24" viewBox="0 0 24 24">
  <path fill="#1B1D22" fill-rule="evenodd" d="M12.0195865,15.3286957 C11.4515778,15.3286957 10.9912949,14.8695652 10.9912949,14.3434783 L10.9912949,4.95043478 L11.0794342,3.53478261 L10.5212187,4.27130435 L9.2383025,5.59130435 C9.07181719,5.7826087 8.8171926,5.88782609 8.56256801,5.88782609 C8.08269859,5.88782609 7.67138194,5.53391304 7.67138194,5.03652174 C7.67138194,4.77826087 7.76931447,4.59652174 7.94559304,4.41478261 L11.226333,1.34434783 C11.4907508,1.08608696 11.7453754,1 12.0195865,1 C12.2937976,1 12.5484222,1.08608696 12.81284,1.34434783 L16.0837867,4.41478261 C16.2698585,4.59652174 16.3677911,4.77826087 16.3677911,5.03652174 C16.3677911,5.53391304 15.9466812,5.88782609 15.4668118,5.88782609 C15.2121872,5.88782609 14.9673558,5.7826087 14.7910773,5.59130435 L13.5179543,4.27130435 L12.9597388,3.54434783 L13.0380849,4.95043478 L13.0380849,14.3434783 C13.0380849,14.8695652 12.5875952,15.3286957 12.0195865,15.3286957 Z M6.33949946,23 C4.17519042,23 3,21.8713043 3,19.7573913 L3,10.5843478 C3,8.47043478 4.17519042,7.34173913 6.33949946,7.34173913 L8.9640914,7.34173913 L8.9640914,9.53217391 L6.54515778,9.53217391 C5.70293798,9.53217391 5.24265506,9.94347826 5.24265506,10.813913 L5.24265506,19.5182609 C5.24265506,20.3886957 5.70293798,20.8095652 6.54515778,20.8095652 L17.4548422,20.8095652 C18.2872688,20.8095652 18.7573449,20.3886957 18.7573449,19.5182609 L18.7573449,10.813913 C18.7573449,9.94347826 18.2872688,9.53217391 17.4548422,9.53217391 L15.0750816,9.53217391 L15.0750816,7.34173913 L17.6605005,7.34173913 C19.8346028,7.34173913 21,8.47043478 21,10.5843478 L21,19.7573913 C21,21.8617391 19.8346028,23 17.6605005,23 L6.33949946,23 Z"/>
</svg>
