<svg xmlns="http://www.w3.org/2000/svg" width="24" height="24" viewBox="0 0 24 24">
  <path fill="#1B1D22" fill-rule="evenodd" d="M5.63246719,12.4503137 L9.60821918,15.5562951 C10.9580381,16.6109917 12.8299411,16.6549374 14.223267,15.6881322 L14.4022089,15.5562951 L18.3664672,12.4583137 L20.1990926,13.8900908 C21.0960497,14.5909387 21.2550277,15.8862155 20.5541798,16.7831726 C20.450733,16.9155657 20.3314857,17.034813 20.1990926,17.1382598 L14.3917808,21.6758703 C12.9832742,22.7764233 11.0062978,22.7764233 9.59779112,21.6758703 L3.79047932,17.1382598 C2.89352222,16.437412 2.73454426,15.1421352 3.4353921,14.2451781 C3.53883897,14.112785 3.65808624,13.9935377 3.79047932,13.8900908 L5.63246719,12.4503137 Z M14.4022089,1.82412969 L20.2095207,6.36174017 C21.1064778,7.06258801 21.2654557,8.35786484 20.5646079,9.25482194 C20.461161,9.38721502 20.3419138,9.5064623 20.2095207,9.60990916 L14.4022089,14.1475196 C12.9937022,15.2480727 11.0167258,15.2480727 9.60821918,14.1475196 L3.80090738,9.60990916 C2.90395028,8.90906132 2.74497231,7.61378449 3.44582015,6.71682739 C3.54926702,6.58443432 3.6685143,6.46518704 3.80090738,6.36174017 L9.60821918,1.82412969 C11.0167258,0.723576669 12.9937022,0.723576669 14.4022089,1.82412969 Z"/>
</svg>
