<svg xmlns="http://www.w3.org/2000/svg" width="24" height="24" viewBox="0 0 24 24">
  <path fill="#1B1D22" fill-rule="evenodd" d="M22,18.0988544 C22,19.2034619 21.104,20.099955 20,20.099955 C18.896,20.099955 18,19.2034619 18,18.0988544 C18,16.9942468 18.896,16.0977538 20,16.0977538 C21.104,16.0977538 22,16.9942468 22,18.0988544 L22,18.0988544 Z M8.507,18.6511581 L9.437,14.5579068 L11.39,16.4179299 L11.39,22 L13.249,22 L13.249,15.0231627 L11.296,13.1621392 L11.854,10.3726049 C13.063,11.7673721 14.922,12.6978838 16.967,12.6978838 L16.967,10.8378608 C15.202,10.8378608 13.713,9.90634849 12.97,8.60463255 L12.041,7.1158137 C11.669,6.55850718 11.11,6.18630247 10.46,6.18630247 C10.181,6.18630247 9.995,6.27935364 9.716,6.27935364 L4.881,8.32547901 L4.881,12.6978838 L6.741,12.6978838 L6.741,9.53514433 L8.415,8.88378608 L6.927,16.4179299 L2.371,15.4884186 L2,17.3484416 L8.507,18.6511581 Z M11.854,5.72104658 C12.878,5.72104658 13.713,4.88358597 13.713,3.86102356 C13.713,2.8374606 12.878,2 11.854,2 C10.832,2 9.995,2.8374606 9.995,3.86102356 C9.995,4.88358597 10.832,5.72104658 11.854,5.72104658 L11.854,5.72104658 Z"/>
</svg>
