<svg xmlns="http://www.w3.org/2000/svg" width="24" height="24" viewBox="0 0 24 24">
  <path fill="#1B1D22" fill-rule="evenodd" d="M15.5714286,12.5 C15.5714286,11.1696429 14.84375,10.0133929 13.7678571,9.39732143 L17.03125,3.85714286 C15.5535714,2.99553571 13.8348214,2.5 12,2.5 C10.1607143,2.5 8.43303571,3 6.95089286,3.86607143 L10.1473214,9.44642857 C9.11607143,10.0714286 8.42857143,11.2053571 8.42857143,12.5 L2,12.5 C2,16.21875 4.09375,19.3482143 7.10714286,21.0714286 L10.2366071,15.6071429 C10.7589286,15.9017857 11.3571429,16.0714286 12,16.0714286 C12.6383929,16.0714286 13.2366071,15.9017857 13.7544643,15.6116071 L16.8928571,21.0714286 C19.90625,19.3482143 22,16.21875 22,12.5 L15.5714286,12.5 Z"/>
</svg>
