<svg xmlns="http://www.w3.org/2000/svg" width="24" height="24" viewBox="0 0 24 24">
  <path fill="#1B1D22" fill-rule="evenodd" d="M11,13 L11,15.2727273 C11,17.3757695 11.7528656,19.4077369 13.0011756,21.0013993 L4,21 C3.45,21 3,20.55 3,20 L3,20 L3,14 C3,13.45 3.45,13 4,13 L4,13 L11,13 Z M7,19 C5.9,19 5,18.1 5,17 C5,15.9 5.9,15 7,15 C8.1,15 9,15.9 9,17 C9,18.1 8.1,19 7,19 Z M20,3 C20.55,3 21,3.45 21,4 L21,4 L21,9.846 L17.5,8.5 L11,11 L4,11 C3.45,11 3,10.55 3,10 L3,10 L3,4 C3,3.45 3.45,3 4,3 L4,3 Z M17.5,10.5 L22,12.5 L22,15.5 C22,18.275 20.08,20.87 17.5,21.5 C14.92,20.87 13,18.275 13,15.5 L13,15.5 L13,12.5 L17.5,10.5 Z M17.5,11.595 L14,13.15 L14,16 L17.5,16 L17.5,20.465 C19.36,19.89 20.735,18.055 21,15.995 L21,15.995 L17.5,15.995 L17.5,11.595 Z M7,5 C8.1,5 9,5.9 9,7 C9,8.1 8.1,9 7,9 C5.9,9 5,8.1 5,7 C5,5.9 5.9,5 7,5 Z"/>
</svg>
