<svg xmlns="http://www.w3.org/2000/svg" width="24" height="24" viewBox="0 0 24 24">
  <path fill="#1B1D22" fill-rule="evenodd" d="M8.2896,20.2511752 C15.8368,20.2511752 19.9648,13.9983752 19.9648,8.57597523 C19.9648,8.39837523 19.9648,8.22157523 19.9528,8.04557523 C20.7558651,7.46470391 21.4490844,6.74547874 22,5.92157523 C21.2511032,6.25341664 20.4566634,6.47103814 19.6432,6.56717523 C20.4997952,6.05436087 21.1408988,5.24779281 21.4472,4.29757523 C20.641726,4.77553948 19.7605169,5.11238484 18.8416,5.29357523 C17.5696662,3.94109065 15.5485755,3.61006529 13.9116394,4.48611917 C12.2747034,5.36217304 11.42902,7.22743581 11.8488,9.03597523 C8.54951659,8.87057485 5.47558062,7.31223384 3.392,4.74877523 C2.30289821,6.62369101 2.85919031,9.02226281 4.6624,10.2263752 C4.00939296,10.2070213 3.3706235,10.0308658 2.8,9.71277523 C2.8,9.72957523 2.8,9.74717523 2.8,9.76477523 C2.80053451,11.7180496 4.17740119,13.4004034 6.092,13.7871752 C5.48789568,13.9519273 4.85406447,13.9760107 4.2392,13.8575752 C4.77675834,15.5291135 6.31725965,16.6742023 8.0728,16.7071752 C6.61978803,17.8491208 4.82484761,18.4690374 2.9768,18.4671752 C2.65032286,18.4665485 2.32416325,18.4467812 2,18.4079752 C3.87650876,19.6121965 6.05993072,20.2509488 8.2896,20.2479752"/>
</svg>
