<svg xmlns="http://www.w3.org/2000/svg" width="24" height="24" viewBox="0 0 24 24">
  <path fill="#1B1D22" fill-rule="evenodd" d="M12.3928558,1.99986718 C16.5286825,2.00128394 18.866196,2.04803705 20.4087563,3.59088955 C21.9033946,5.08524477 21.9939788,7.3256451 21.9994687,11.2242942 L21.9994687,12.7753002 C21.9939788,16.6737004 21.9033946,18.9141179 20.4087563,20.4087563 C18.914401,21.9033946 16.6740007,21.9939788 12.7753516,21.9994687 L11.2242973,21.9994687 C7.32567942,21.9939788 5.0855279,21.9033946 3.59088954,20.4087563 C1.9998229,18.8176896 1.9998229,16.3815101 1.9998229,11.9998229 L1.99986718,11.60679 C2.00128394,7.47096337 2.04803705,5.13344978 3.59088954,3.59088955 C5.18195618,1.9998229 7.6178343,1.9998229 11.9998229,1.9998229 Z M6.67213634,6.67383783 C3.77571843,9.57264379 3.77571843,14.2726438 6.67213634,17.1711513 C9.56855422,20.0699572 14.2643752,20.0699572 17.160793,17.1711513 C20.057211,14.2726438 20.057211,9.57264379 17.160793,6.67383783 C14.2643752,3.77503186 9.56855422,3.77503186 6.67213634,6.67383783 Z M16.8855692,9.25562885 C16.9243752,9.55562885 16.8652707,9.83055423 16.716614,10.0887632 C15.4933303,12.2174199 14.2688528,14.3445841 13.0473602,16.4741364 C12.8204945,16.8696587 12.4906438,17.1090617 12.0381065,17.1418975 C11.5309423,17.178614 11.1327333,16.9645841 10.877211,16.5245841 C10.1031811,15.1905542 9.33780797,13.8511513 8.56915128,12.5141364 C8.10168857,11.700405 7.63243484,10.8878677 7.16706171,10.0732408 C6.69750947,9.25144979 7.22706171,8.25264379 8.16915126,8.20428559 C8.66676322,8.17861395 9.05034528,8.40816617 9.30288259,8.84100204 C9.64795722,9.43294229 9.98676322,10.0284647 10.3282557,10.622196 C10.5745244,11.0499572 10.8157184,11.4807035 11.0691513,11.9039871 C11.4357184,12.5183154 11.9748229,12.8648826 12.6921363,12.9078677 C13.7076587,12.9684647 14.6506438,12.2320468 14.7721363,11.1502557 C14.7813901,11.0690617 14.7873602,10.9884647 14.7909423,10.9469722 C14.7855692,10.5968229 14.720196,10.3018975 14.5813901,10.0236886 C14.2022856,9.26279304 14.6061662,8.41025573 15.4306438,8.22727067 C16.1019871,8.07861395 16.796614,8.57294229 16.8855692,9.25562885 Z"/>
</svg>
