<svg xmlns="http://www.w3.org/2000/svg" width="24" height="24" viewBox="0 0 24 24">
  <path fill="#1B1D22" fill-rule="evenodd" d="M9.75301205,4 C13.3733253,4 16.3741205,6.20746988 16.9180482,9.09327711 C16.7916627,9.0873494 16.6643373,9.08433735 16.5361446,9.08433735 C12.8697831,9.08433735 9.89759036,11.5440723 9.89759036,14.5783133 C9.89759036,15.0930602 9.98313253,15.591253 10.1430602,16.0637108 C10.0139036,16.0694217 9.88387952,16.0722892 9.75301205,16.0722892 C8.89525301,16.0722892 8.07226506,15.9483855 7.30850602,15.7208916 C7.15322892,15.6746265 6.98575904,15.6953253 6.84585542,15.777012 L6.84585542,15.777012 L5.29277108,16.6838072 C4.94951807,16.884241 4.75286747,16.7340723 4.85575904,16.3501446 L4.85575904,16.3501446 L5.1966747,15.0780723 C5.24308434,14.9048916 5.17628916,14.7218072 5.03043373,14.6175904 C3.4813012,13.5105542 2.5,11.8687229 2.5,10.0361446 C2.5,6.70248193 5.74727711,4 9.75301205,4 Z M12.1626506,7.13253012 C11.6303133,7.13253012 11.1987952,7.56407229 11.1987952,8.09638554 C11.1987952,8.62872289 11.6303133,9.06024096 12.1626506,9.06024096 C12.6949639,9.06024096 13.126506,8.62872289 13.126506,8.09638554 C13.126506,7.56407229 12.6949639,7.13253012 12.1626506,7.13253012 Z M7.31927711,7.13253012 C6.78696386,7.13253012 6.35542169,7.56407229 6.35542169,8.09638554 C6.35542169,8.62872289 6.78696386,9.06024096 7.31927711,9.06024096 C7.85159036,9.06024096 8.28313253,8.62872289 8.28313253,8.09638554 C8.28313253,7.56407229 7.85159036,7.13253012 7.31927711,7.13253012 Z M16.4638554,9.56626506 C19.7975181,9.56626506 22.5,11.8210361 22.5,14.6024096 C22.5,16.1387229 21.675494,17.5143373 20.3755663,18.4380723 C20.2712771,18.5121928 20.2239277,18.6432289 20.2563614,18.766988 L20.540506,19.8509398 C20.6255904,20.1754699 20.4576386,20.3034458 20.1673012,20.1353735 L18.858,19.3773494 C18.7556386,19.3180723 18.6334217,19.3045542 18.5202169,19.3387711 C17.8784096,19.5327711 17.1859277,19.6385542 16.4638554,19.6385542 C13.1301928,19.6385542 10.4277108,17.3838072 10.4277108,14.6024096 C10.4277108,11.8210361 13.1301928,9.56626506 16.4638554,9.56626506 Z M18.4518072,12.1686747 C17.9993253,12.1686747 17.6325301,12.535494 17.6325301,12.9879518 C17.6325301,13.4404337 17.9993253,13.8072289 18.4518072,13.8072289 C18.9042892,13.8072289 19.2710843,13.4404337 19.2710843,12.9879518 C19.2710843,12.535494 18.9042892,12.1686747 18.4518072,12.1686747 Z M14.4518072,12.1686747 C13.9993253,12.1686747 13.6325301,12.535494 13.6325301,12.9879518 C13.6325301,13.4404337 13.9993253,13.8072289 14.4518072,13.8072289 C14.9042892,13.8072289 15.2710843,13.4404337 15.2710843,12.9879518 C15.2710843,12.535494 14.9042892,12.1686747 14.4518072,12.1686747 Z"/>
</svg>
