<svg xmlns="http://www.w3.org/2000/svg" width="24" height="24" viewBox="0 0 24 24">
  <path fill="#1B1D22" fill-rule="evenodd" d="M19.0787589,4.92124105 C17.202864,3.03579952 14.7016706,2 12.0381862,2 C6.55369928,2 2.08591885,6.46778043 2.08114558,11.9522673 C2.08114558,13.7088305 2.53937947,15.4176611 3.40811456,16.9307876 L2,22.0906921 L7.27923628,20.7064439 C8.73508353,21.4988067 10.372315,21.9188544 12.0381862,21.9188544 L12.0429594,21.9188544 C12.0429594,21.9188544 12.0429594,21.9188544 12.0429594,21.9188544 C17.5274463,21.9188544 21.9952267,17.451074 22,11.9618138 C21.9952267,9.30310263 20.9594272,6.80190931 19.0787589,4.92124105 Z M12.0381862,20.2338902 L12.0381862,20.2338902 C10.548926,20.2338902 9.09307876,19.8329356 7.82338902,19.0787589 L7.52267303,18.8973747 L4.39140811,19.7183771 L5.22673031,16.6634845 L5.03102625,16.3484487 C4.20047733,15.0310263 3.76610979,13.5083532 3.76610979,11.947494 C3.76610979,7.39379475 7.4797136,3.68019093 12.0429594,3.68019093 C14.2529833,3.68019093 16.3293556,4.54415274 17.8949881,6.10501193 C19.4558473,7.67064439 20.3150358,9.74701671 20.3150358,11.9570406 C20.3102625,16.5250597 16.5966587,20.2338902 12.0381862,20.2338902 Z M16.5775656,14.0381862 C16.3293556,13.9140811 15.1073986,13.3126492 14.8782816,13.2267303 C14.6491647,13.1455847 14.4821002,13.1026253 14.3198091,13.3508353 C14.1527446,13.5990453 13.6754177,14.1622912 13.5322196,14.3245823 C13.3890215,14.4916468 13.2410501,14.5107399 12.9928401,14.3866348 C12.7446301,14.2625298 11.9427208,14 10.9928401,13.150358 C10.2529833,12.4916468 9.75656325,11.6754177 9.60859189,11.4272076 C9.46539379,11.1789976 9.59427208,11.0453461 9.71837709,10.9212411 C9.82816229,10.8114558 9.96658711,10.6300716 10.0906921,10.4868735 C10.2147971,10.3436754 10.2577566,10.2386635 10.3389021,10.071599 C10.4200477,9.90453461 10.3818616,9.76133652 10.3198091,9.6372315 C10.2577566,9.51312649 9.76133652,8.28639618 9.55131265,7.78997613 C9.35083532,7.30310263 9.14558473,7.3699284 8.9928401,7.36515513 C8.849642,7.35560859 8.68257757,7.35560859 8.51551313,7.35560859 C8.34844869,7.35560859 8.08114558,7.4176611 7.85202864,7.66587112 C7.62291169,7.91408115 6.98329356,8.51551313 6.98329356,9.74224344 C6.98329356,10.9689737 7.87589499,12.1479714 8,12.3150358 C8.12410501,12.4821002 9.75178998,14.9928401 12.24821,16.071599 C12.8400955,16.3293556 13.3031026,16.4821002 13.6658711,16.5966587 C14.2625298,16.7875895 14.8019093,16.7589499 15.2315036,16.6968974 C15.7088305,16.6252983 16.7016706,16.0954654 16.9116945,15.5131265 C17.1169451,14.9307876 17.1169451,14.4343675 17.0548926,14.3293556 C16.9928401,14.2243437 16.8257757,14.1622912 16.5775656,14.0381862 Z"/>
</svg>
