<svg xmlns="http://www.w3.org/2000/svg" width="24" height="24" viewBox="0 0 24 24">
  <path fill="#1B1D22" fill-rule="evenodd" d="M11.1677416,4.44043054 C10.3297597,4.0150448 9.03709969,3.5585323 8.32301389,3.43586452 C8.07266487,3.39265086 7.64565341,3.36871963 7.37391836,3.38243023 C6.78488876,3.41216236 6.81115533,3.38126466 7.75629924,2.93497278 C8.54198257,2.5639511 9.19748986,2.34580094 10.0873105,2.15900662 C11.0882442,1.9489885 12.9697025,1.9466641 13.9548284,2.15412875 C15.0187506,2.37809328 16.2714293,2.84413247 16.9773807,3.27811512 L17.187048,3.40728448 L16.7058775,3.38289511 C15.7491113,3.33480357 14.3551061,3.72092376 12.8583536,4.44902746 C12.4069382,4.66857226 12.0140958,4.84398037 11.985507,4.83863762 C11.9569114,4.83352393 11.5889436,4.6541677 11.1677416,4.44043054 L11.1677416,4.44043054 Z M20.0468912,17.73982 C20.1391696,17.2902726 20.0224818,16.4643608 19.749354,15.6312467 C19.1575357,13.8272542 17.1798418,10.4713301 15.3637111,8.1894413 L14.79188,7.4711001 L15.4104334,6.90352835 C16.2181951,6.16241474 16.7788698,5.71867634 17.3839343,5.34184702 C17.8611546,5.04447182 18.5433976,4.7810194 18.8367486,4.7810194 C19.0175979,4.7810194 19.6540488,5.44128425 20.1679944,6.16172079 C20.9636761,7.27780419 21.5492185,8.63039716 21.8458254,10.038513 C22.0375953,10.9485264 22.0534031,12.8960989 21.87674,13.8037879 C21.7316925,14.5486138 21.4253178,15.5148528 21.1266211,16.1700066 C20.9027706,16.6611392 20.3458237,17.6145967 20.1019792,17.9249818 C19.9764538,18.0845887 19.9764538,18.0841239 20.0468912,17.73982 L20.0468912,17.73982 Z M12.0650044,10.0940359 C12.442504,10.1783679 15.4620363,13.1221452 16.5924388,14.5079603 C18.3799874,16.6992406 19.2019323,18.4934786 18.7844514,19.2933706 C18.4669202,19.9015945 16.4978347,21.0899317 15.0510605,21.546681 C13.8585929,21.9228135 12.2928052,22.0824202 11.0027068,21.9588238 C9.46225195,21.8115303 7.90251093,21.2583667 6.56266617,20.3848288 C5.43993023,19.6525433 5.18632662,19.3516835 5.18632662,18.7508937 C5.18632662,17.5444355 6.51361885,15.4314485 8.78443106,13.0224789 C10.0742935,11.6543226 11.8706729,10.0505932 12.0650044,10.0940359 Z M5.79790373,4.91785592 C6.54081568,5.16784028 7.3339371,5.71542891 8.56406496,6.82709932 L9.28163858,7.47574216 L8.88972651,7.95688659 C7.07057041,10.1906839 5.15006441,13.3570244 4.42621282,15.315983 C4.03267413,16.3809565 3.87391058,17.4498795 4.04336681,17.8950119 C4.15750047,18.1954068 4.05266544,18.0834272 3.66981875,17.4965764 C2.73676291,16.0659253 2.26535291,14.6575777 2.03778384,12.6205596 C1.96270232,11.9479787 1.98966658,11.5632532 2.208635,10.1827809 C2.48129945,8.46196225 3.46177598,6.47140522 4.63983517,5.24636464 C5.14169605,4.72456676 5.18632662,4.71178592 5.79790373,4.91785592 Z"/>
</svg>
