<svg xmlns="http://www.w3.org/2000/svg" width="24" height="24" viewBox="0 0 24 24">
  <path fill="#1B1D22" fill-rule="evenodd" d="M12.2474375,5.00070977 C13.4225636,5.00596204 18.4398782,5.05008117 19.8138636,5.42068182 C20.6744318,5.65215909 21.3520455,6.33420455 21.5820455,7.20034091 C22,8.77011364 22,12.0454545 22,12.0454545 C22,12.0454545 22,15.3206818 21.5820455,16.8906818 C21.3520455,17.7567045 20.6744318,18.43875 19.8138636,18.6703409 C18.4398782,19.0408415 13.4225636,19.0849487 12.2474375,19.0901995 L11.7525625,19.0901995 C10.5774364,19.0849487 5.56012175,19.0408415 4.18613636,18.6703409 C3.32568182,18.43875 2.64795455,17.7567045 2.41795455,16.8906818 C2.05572727,15.5300152 2.0074303,12.8885333 2.00099071,12.2083278 L2.00099071,11.8825763 C2.0074303,11.2023515 2.05572727,8.56081061 2.41795455,7.20034091 C2.64795455,6.33420455 3.32568182,5.65215909 4.18613636,5.42068182 C5.56012175,5.05008117 10.5774364,5.00596204 11.7525625,5.00070977 Z M9.95454545,9.07170455 L9.95454545,15.0192045 L15.1818182,12.0455682 L9.95454545,9.07170455 Z"/>
</svg>
